<svg width="77" height="78" viewBox="0 0 77 78" fill="none" xmlns="http://www.w3.org/2000/svg">
<path fill-rule="evenodd" clip-rule="evenodd" d="M47.006 28.8178C50.549 29.8442 52.5 31.4261 52.5 33.2724C52.5 34.7856 51.2207 36.0044 49.2365 36.9102C48.9858 37.9587 47.453 42 38.7117 42C29.8567 42 28.0698 37.8643 27.7767 36.9161C25.785 36.0097 24.5 34.7889 24.5 33.2724C24.5 30.6909 28.1367 29.3122 30.4054 28.7033C31.3078 26.805 32.5055 25.3589 33.8396 24.6057C34.0895 23.9714 34.9308 22.2776 36.7967 22.2776C37.9792 22.2776 38.7976 22.7283 39.3654 23.3248C40.5483 23.3634 41.4342 23.8997 41.9936 24.9308C42.0662 25.0647 42.1296 25.2065 42.1886 25.3518C44.3353 25.5044 45.8717 26.9513 46.8666 28.8067C46.9123 28.8023 46.9589 28.8037 47.006 28.8178ZM36.9283 25.5846C36.2923 25.1679 35.511 25.1161 34.6758 25.4577C33.0921 26.1057 31.0579 28.3111 30.0989 32.5564C30.0277 32.87 29.7693 33.0512 29.5227 32.9619C29.2752 32.8719 29.1324 32.5445 29.203 32.231C29.2048 32.2232 29.2068 32.2155 29.2087 32.2079C29.2106 32.2006 29.2125 32.1933 29.2142 32.1859C28.7099 32.481 28.6429 32.6894 28.6423 32.6922C28.8121 33.3836 32.433 34.7205 38.7493 34.7205C45.0631 34.7205 48.6837 33.3843 48.856 32.6676C48.8553 32.6676 48.8536 32.6648 48.8504 32.6595C48.8216 32.6123 48.6703 32.364 48.0213 32.0447C48.0255 32.0649 48.0302 32.0851 48.0349 32.1053L48.035 32.1054C48.0406 32.1296 48.0463 32.1538 48.0511 32.1779C48.1141 32.4941 47.9634 32.8157 47.7138 32.8958C47.6756 32.9081 47.6371 32.9138 47.5992 32.9138C47.3911 32.9138 47.2013 32.7357 47.1479 32.4679C46.2253 27.8489 43.7932 26.8007 42.5246 26.5743C42.5777 26.888 42.6129 27.2119 42.6319 27.5419C43.5107 27.6211 45.5226 28.2889 46.2608 32.6322C46.3148 32.9515 46.1549 33.2658 45.9035 33.3347C45.8704 33.3436 45.8374 33.3478 45.8046 33.3478C45.5899 33.3478 45.397 33.1585 45.3497 32.8815C44.7497 29.3485 43.2718 28.789 42.6404 28.7164C42.6288 29.0257 42.6083 29.3338 42.5796 29.6366C43.1288 29.9632 44.1063 30.8446 44.4486 33.092C44.4975 33.412 44.3322 33.7221 44.0795 33.7841C44.0498 33.7914 44.0201 33.7948 43.9907 33.7948C43.772 33.7948 43.577 33.5986 43.5339 33.3159C43.314 31.8727 42.7953 31.1877 42.4222 30.871C42.1803 32.4037 41.8295 33.588 41.7973 33.6948C41.7263 33.9299 41.5495 34.0745 41.3621 34.0745C41.3069 34.0745 41.2505 34.0618 41.1959 34.0357C40.9557 33.9191 40.8353 33.5775 40.9269 33.2728C41.3697 31.8008 42.2862 27.5532 41.2256 25.6C40.9839 25.1549 40.65 24.8499 40.2195 24.6752C40.2231 24.684 40.2269 24.6928 40.2308 24.7017C40.2358 24.7133 40.2408 24.7249 40.2454 24.7363C41.2205 27.1793 40.703 31.0687 39.0153 33.9845C38.924 34.1422 38.7826 34.2257 38.6395 34.2257C38.5436 34.2257 38.4472 34.1884 38.3641 34.1111C38.1567 33.9179 38.1121 33.5482 38.2643 33.2851C39.7316 30.7502 40.226 27.3043 39.4141 25.2703C38.9346 24.0686 38.0538 23.4594 36.7967 23.4594C36.1636 23.4594 35.6957 23.736 35.358 24.0717C36.3049 23.9518 37.1791 24.2532 37.8846 24.9587C40.4771 27.5513 36.8307 33.6706 36.6745 33.9299C36.5826 34.0818 36.4443 34.1615 36.3042 34.1615C36.2056 34.1615 36.1058 34.1218 36.0215 34.0399C35.8171 33.8414 35.7783 33.4705 35.9345 33.2116C35.9538 33.1796 37.0662 31.285 37.601 29.3558C36.8015 29.3904 35.5356 30.0452 34.7283 33.4532C34.6676 33.709 34.4826 33.8741 34.2825 33.8741C34.2379 33.8741 34.1927 33.866 34.1481 33.8491C33.9015 33.7552 33.762 33.4255 33.836 33.1131C34.9033 28.6075 36.8621 28.1179 37.8416 28.1816C37.9109 27.6136 37.8934 27.0784 37.7451 26.625C36.8403 26.6822 33.5497 27.2917 32.3845 33.0685C32.3305 33.3355 32.1413 33.5128 31.9335 33.5128C31.8953 33.5128 31.8565 33.5071 31.8177 33.4944C31.5684 33.4136 31.4182 33.0916 31.4819 32.7753C32.5598 27.4318 35.368 25.9781 36.9283 25.5846ZM38.7117 40.8182C32.5355 40.8182 30.0883 38.7554 29.1601 37.459C31.7859 38.348 35.1924 38.8103 38.5 38.8103C41.8638 38.8103 45.3311 38.3329 47.9742 37.414C47.2098 38.6837 44.9915 40.8182 38.7117 40.8182ZM25.4317 33.2724C25.4317 35.3329 30.7987 37.6285 38.5 37.6285C46.2014 37.6285 51.5683 35.3329 51.5683 33.2724C51.5683 32.4467 50.4814 31.1781 47.4849 30.1834C47.5426 30.3389 47.5966 30.4952 47.648 30.6526C47.6763 30.6563 47.7047 30.6625 47.733 30.6732C48.6146 31.0083 49.7868 31.5811 49.7868 32.6795C49.7868 35.2236 42.8488 35.9023 38.7493 35.9023C34.6498 35.9023 27.7118 35.2236 27.7118 32.6795C27.7118 31.6278 28.7822 31.0669 29.6088 30.7347C29.6788 30.5138 29.752 30.2964 29.8291 30.0835C26.6083 31.0841 25.4317 32.3981 25.4317 33.2724Z" fill="#828487"/>
<path d="M38.1382 20.3894C37.975 20.5927 38.0041 20.8927 38.2031 21.0593C38.2898 21.1318 38.3944 21.1671 38.4982 21.1671C38.6331 21.1671 38.7666 21.1076 38.8588 20.9928C39.385 20.3367 40.0628 18.691 38.8621 17.1578C37.8801 15.9036 38.7308 14.9173 38.8336 14.8065C39.0116 14.6183 39.0074 14.3183 38.8239 14.1353C38.6398 13.952 38.3453 13.9552 38.1652 14.1433C37.622 14.7117 36.9168 16.1974 38.1348 17.7525C39.1587 19.0602 38.1788 20.3375 38.1382 20.3894Z" fill="#828487"/>
<path d="M33.4636 21.1381C33.3004 21.3415 33.3295 21.6414 33.5288 21.8079C33.6152 21.8805 33.7198 21.9158 33.8236 21.9158C33.9585 21.9158 34.0923 21.8563 34.1842 21.7415C34.5381 21.3 34.9942 20.1929 34.1875 19.1625C33.6977 18.5368 34.0777 18.0574 34.1605 17.9659C34.337 17.7775 34.3322 17.4788 34.1493 17.2962C33.9652 17.1128 33.6704 17.1162 33.4906 17.3043C33.1196 17.6924 32.6359 18.7047 33.4602 19.7572C33.984 20.4264 33.516 21.0701 33.4636 21.1381Z" fill="#828487"/>
<path d="M43.2979 21.1381C43.1347 21.3414 43.1639 21.6414 43.3628 21.8079C43.4496 21.8805 43.5542 21.9158 43.6579 21.9158C43.7926 21.9158 43.9263 21.8563 44.0185 21.7415C44.3728 21.3 44.8289 20.1929 44.0219 19.1625C43.532 18.5368 43.9121 18.0574 43.9949 17.9659C44.1714 17.7775 44.1665 17.4788 43.9836 17.2962C43.7995 17.1128 43.5048 17.1162 43.3249 17.3043C42.954 17.6924 42.4702 18.7047 43.2946 19.7573C43.8187 20.4264 43.3507 21.0699 43.2979 21.1381Z" fill="#828487"/>
<path d="M15.7639 61.296H12.2719L11.6719 63H10.2439L13.2319 54.648H14.8159L17.8039 63H16.3639L15.7639 61.296ZM15.3799 60.18L14.0239 56.304L12.6559 60.18H15.3799ZM20.4711 57.36C20.7031 57.056 21.0191 56.8 21.4191 56.592C21.8191 56.384 22.2711 56.28 22.7751 56.28C23.3511 56.28 23.8751 56.424 24.3471 56.712C24.8271 56.992 25.2031 57.388 25.4751 57.9C25.7471 58.412 25.8831 59 25.8831 59.664C25.8831 60.328 25.7471 60.924 25.4751 61.452C25.2031 61.972 24.8271 62.38 24.3471 62.676C23.8751 62.964 23.3511 63.108 22.7751 63.108C22.2711 63.108 21.8231 63.008 21.4311 62.808C21.0391 62.6 20.7191 62.344 20.4711 62.04V66.144H19.1031V56.388H20.4711V57.36ZM24.4911 59.664C24.4911 59.208 24.3951 58.816 24.2031 58.488C24.0191 58.152 23.7711 57.9 23.4591 57.732C23.1551 57.556 22.8271 57.468 22.4751 57.468C22.1311 57.468 21.8031 57.556 21.4911 57.732C21.1871 57.908 20.9391 58.164 20.7471 58.5C20.5631 58.836 20.4711 59.232 20.4711 59.688C20.4711 60.144 20.5631 60.544 20.7471 60.888C20.9391 61.224 21.1871 61.48 21.4911 61.656C21.8031 61.832 22.1311 61.92 22.4751 61.92C22.8271 61.92 23.1551 61.832 23.4591 61.656C23.7711 61.472 24.0191 61.208 24.2031 60.864C24.3951 60.52 24.4911 60.12 24.4911 59.664ZM28.6039 57.36C28.8359 57.056 29.1519 56.8 29.5519 56.592C29.9519 56.384 30.4039 56.28 30.9079 56.28C31.4839 56.28 32.0079 56.424 32.4799 56.712C32.9599 56.992 33.3359 57.388 33.6079 57.9C33.8799 58.412 34.0159 59 34.0159 59.664C34.0159 60.328 33.8799 60.924 33.6079 61.452C33.3359 61.972 32.9599 62.38 32.4799 62.676C32.0079 62.964 31.4839 63.108 30.9079 63.108C30.4039 63.108 29.9559 63.008 29.5639 62.808C29.1719 62.6 28.8519 62.344 28.6039 62.04V66.144H27.2359V56.388H28.6039V57.36ZM32.6239 59.664C32.6239 59.208 32.5279 58.816 32.3359 58.488C32.1519 58.152 31.9039 57.9 31.5919 57.732C31.2879 57.556 30.9599 57.468 30.6079 57.468C30.2639 57.468 29.9359 57.556 29.6239 57.732C29.3199 57.908 29.0719 58.164 28.8799 58.5C28.6959 58.836 28.6039 59.232 28.6039 59.688C28.6039 60.144 28.6959 60.544 28.8799 60.888C29.0719 61.224 29.3199 61.48 29.6239 61.656C29.9359 61.832 30.2639 61.92 30.6079 61.92C30.9599 61.92 31.2879 61.832 31.5919 61.656C31.9039 61.472 32.1519 61.208 32.3359 60.864C32.5279 60.52 32.6239 60.12 32.6239 59.664ZM41.4288 59.532C41.4288 59.78 41.4128 60.004 41.3808 60.204H36.3288C36.3688 60.732 36.5648 61.156 36.9168 61.476C37.2688 61.796 37.7008 61.956 38.2128 61.956C38.9488 61.956 39.4688 61.648 39.7728 61.032H41.2487C41.0488 61.64 40.6848 62.14 40.1568 62.532C39.6368 62.916 38.9888 63.108 38.2128 63.108C37.5808 63.108 37.0128 62.968 36.5088 62.688C36.0128 62.4 35.6208 62 35.3328 61.488C35.0528 60.968 34.9128 60.368 34.9128 59.688C34.9128 59.008 35.0488 58.412 35.3208 57.9C35.6008 57.38 35.9888 56.98 36.4848 56.7C36.9888 56.42 37.5648 56.28 38.2128 56.28C38.8368 56.28 39.3928 56.416 39.8808 56.688C40.3688 56.96 40.7488 57.344 41.0208 57.84C41.2928 58.328 41.4288 58.892 41.4288 59.532ZM40.0008 59.1C39.9928 58.596 39.8128 58.192 39.4608 57.888C39.1088 57.584 38.6728 57.432 38.1528 57.432C37.6808 57.432 37.2768 57.584 36.9408 57.888C36.6048 58.184 36.4048 58.588 36.3408 59.1H40.0008ZM44.371 57.504V61.164C44.371 61.412 44.427 61.592 44.539 61.704C44.659 61.808 44.859 61.86 45.139 61.86H45.979V63H44.899C44.283 63 43.811 62.856 43.483 62.568C43.155 62.28 42.991 61.812 42.991 61.164V57.504H42.211V56.388H42.991V54.744H44.371V56.388H45.979V57.504H44.371ZM47.9358 55.512C47.6878 55.512 47.4798 55.428 47.3118 55.26C47.1438 55.092 47.0598 54.884 47.0598 54.636C47.0598 54.388 47.1438 54.18 47.3118 54.012C47.4798 53.844 47.6878 53.76 47.9358 53.76C48.1758 53.76 48.3798 53.844 48.5478 54.012C48.7158 54.18 48.7998 54.388 48.7998 54.636C48.7998 54.884 48.7158 55.092 48.5478 55.26C48.3798 55.428 48.1758 55.512 47.9358 55.512ZM48.6078 56.388V63H47.2398V56.388H48.6078ZM51.6159 61.884H54.6159V63H50.0319V61.884L53.0439 57.504H50.0319V56.388H54.6159V57.504L51.6159 61.884ZM62.1123 59.532C62.1123 59.78 62.0963 60.004 62.0643 60.204H57.0123C57.0523 60.732 57.2483 61.156 57.6003 61.476C57.9523 61.796 58.3843 61.956 58.8963 61.956C59.6323 61.956 60.1523 61.648 60.4563 61.032H61.9323C61.7323 61.64 61.3683 62.14 60.8403 62.532C60.3203 62.916 59.6723 63.108 58.8963 63.108C58.2643 63.108 57.6963 62.968 57.1923 62.688C56.6963 62.4 56.3043 62 56.0163 61.488C55.7363 60.968 55.5963 60.368 55.5963 59.688C55.5963 59.008 55.7323 58.412 56.0043 57.9C56.2843 57.38 56.6723 56.98 57.1683 56.7C57.6723 56.42 58.2483 56.28 58.8963 56.28C59.5203 56.28 60.0763 56.416 60.5643 56.688C61.0523 56.96 61.4323 57.344 61.7043 57.84C61.9763 58.328 62.1123 58.892 62.1123 59.532ZM60.6843 59.1C60.6763 58.596 60.4963 58.192 60.1443 57.888C59.7923 57.584 59.3563 57.432 58.8363 57.432C58.3643 57.432 57.9603 57.584 57.6243 57.888C57.2883 58.184 57.0883 58.588 57.0243 59.1H60.6843ZM64.8266 57.348C65.0266 57.012 65.2906 56.752 65.6186 56.568C65.9546 56.376 66.3506 56.28 66.8066 56.28V57.696H66.4586C65.9226 57.696 65.5146 57.832 65.2346 58.104C64.9626 58.376 64.8266 58.848 64.8266 59.52V63H63.4586V56.388H64.8266V57.348Z" fill="#828487"/>
</svg>
