<svg width="77" height="78" viewBox="0 0 77 78" fill="none" xmlns="http://www.w3.org/2000/svg">
<path fill-rule="evenodd" clip-rule="evenodd" d="M33.8605 16.0715V23.9121L36.3997 26.2426C36.8641 26.6569 37.2667 27.4596 37.2667 28.0292V39.9285C37.2667 41.0679 36.121 42 34.7276 42H28.0391C26.6457 42 25.5 41.0679 25.5 39.9285V28.0292C25.5 27.4596 25.9025 26.6569 26.367 26.2685L28.9061 23.9121V16.0715H33.8605ZM34.7276 40.9642C35.4397 40.9642 36.0281 40.4981 36.0281 39.9284H36.059V28.055C36.059 27.7443 35.7804 27.2005 35.5326 26.9934L35.5017 26.9675L35.4707 26.9416L32.9316 24.5853L32.6219 24.3004V23.912V17.1072H30.1447V23.912V24.3004L29.8351 24.5853L27.3269 26.9157L27.296 26.9416L27.265 26.9675C26.9863 27.2005 26.7386 27.7184 26.7386 28.0291V39.9284C26.7386 40.4981 27.3269 40.9642 28.0391 40.9642H34.7276Z" fill="#828487"/>
<path d="M29.2902 15.0357H33.6253C33.9659 15.0357 34.2446 14.8027 34.2446 14.5179C34.2446 14.233 33.9659 14 33.6253 14H29.2902C28.9496 14 28.6709 14.233 28.6709 14.5179C28.6709 14.8027 28.9496 15.0357 29.2902 15.0357Z" fill="#828487"/>
<path fill-rule="evenodd" clip-rule="evenodd" d="M29.2158 29.4431H33.5509C34.2321 29.4431 34.7895 29.9092 34.7895 30.4789V35.9165C34.7895 36.4862 34.2321 36.9523 33.5509 36.9523H29.2158C28.5345 36.9523 27.9772 36.4862 27.9772 35.9165V30.4789C27.9772 29.9092 28.5345 29.4431 29.2158 29.4431ZM29.2158 35.9164H33.5509V30.4788H29.2158V35.9164Z" fill="#828487"/>
<path fill-rule="evenodd" clip-rule="evenodd" d="M48.9094 24.8665C48.7546 24.6075 48.3211 24.4263 47.9805 24.4263H42.0042C41.6636 24.4263 41.2301 24.6334 41.0753 24.8665C41.0299 24.9375 40.9804 25.0143 40.9273 25.0965C39.5697 27.2015 35.9337 32.839 41.4469 35.5554C41.6922 35.6807 41.9555 35.786 42.2183 35.8912L42.2184 35.8912C42.5527 36.0249 42.8862 36.1582 43.1809 36.3322C43.6144 36.5911 44.1099 36.9795 44.3576 37.4456V40.6461H42.4997C42.1591 40.6461 41.8804 40.8791 41.8804 41.164C41.8804 41.4488 42.1591 41.6818 42.4997 41.6818H47.4541C47.7947 41.6818 48.0734 41.4488 48.0734 41.164C48.0734 40.8791 47.7947 40.6461 47.4541 40.6461H45.5962V37.4974C45.8439 37.0054 46.3393 36.6429 46.7728 36.384C47.1104 36.1681 47.4989 36.0162 47.8812 35.8666C48.095 35.783 48.3069 35.7001 48.5069 35.6072C54.0355 32.8877 50.4748 27.3167 49.0903 25.1507C49.0247 25.0481 48.964 24.9531 48.9094 24.8665ZM41.7147 26.1102L41.7147 26.1102C41.8681 25.8733 42.0086 25.6564 42.1282 25.4619H47.8877C48.0266 25.6878 48.2321 25.9851 48.463 26.3192L48.463 26.3192C49.1585 27.3255 50.0846 28.6655 50.1171 29.3926C50.1326 29.4832 50.1481 29.5674 50.1636 29.6515C50.1791 29.7357 50.1946 29.8198 50.21 29.9105L50.1428 29.9223C49.4929 30.0375 47.7257 30.3506 45.0079 30.3506C42.3449 30.3506 40.4251 30.014 39.8058 29.8846C39.8164 29.8311 39.8234 29.7744 39.8305 29.7168C39.8439 29.6067 39.8578 29.4932 39.8987 29.3926C40.4191 28.1114 41.1535 26.9771 41.7147 26.1102ZM47.2993 34.9339C47.5161 34.8562 47.7328 34.7786 47.9186 34.675C49.4669 33.9241 50.241 32.6812 50.3339 30.9463C49.5288 31.1017 47.7019 31.3865 45.0698 31.3865C42.5307 31.3865 40.6419 31.1017 39.8058 30.9463C39.8058 32.6812 40.6109 33.8982 42.1591 34.675C42.2189 34.7 42.2819 34.7277 42.3471 34.7563C42.4845 34.8166 42.6314 34.8812 42.7784 34.9339C42.8446 34.9616 42.9127 34.9892 42.9822 35.0175C43.3034 35.1479 43.6552 35.2907 43.9861 35.5036C44.4196 35.7625 44.7602 36.0473 45.0389 36.3322C45.2866 36.0473 45.6582 35.7625 46.0917 35.5036C46.4942 35.2705 46.9277 35.0893 47.2993 34.9339L47.2993 34.9339Z" fill="#828487"/>
<path d="M11.8777 58.716C12.3257 58.796 12.7057 59.032 13.0177 59.424C13.3297 59.816 13.4857 60.26 13.4857 60.756C13.4857 61.18 13.3737 61.564 13.1497 61.908C12.9337 62.244 12.6177 62.512 12.2017 62.712C11.7857 62.904 11.3017 63 10.7497 63H7.41367V54.66H10.5937C11.1617 54.66 11.6497 54.756 12.0577 54.948C12.4657 55.14 12.7737 55.4 12.9817 55.728C13.1897 56.048 13.2937 56.408 13.2937 56.808C13.2937 57.288 13.1657 57.688 12.9097 58.008C12.6537 58.328 12.3097 58.564 11.8777 58.716ZM8.78167 58.164H10.4737C10.9217 58.164 11.2697 58.064 11.5177 57.864C11.7737 57.656 11.9017 57.36 11.9017 56.976C11.9017 56.6 11.7737 56.308 11.5177 56.1C11.2697 55.884 10.9217 55.776 10.4737 55.776H8.78167V58.164ZM10.6297 61.884C11.0937 61.884 11.4577 61.772 11.7217 61.548C11.9857 61.324 12.1177 61.012 12.1177 60.612C12.1177 60.204 11.9777 59.88 11.6977 59.64C11.4177 59.4 11.0457 59.28 10.5817 59.28H8.78167V61.884H10.6297ZM21.0323 59.532C21.0323 59.78 21.0163 60.004 20.9843 60.204H15.9323C15.9723 60.732 16.1683 61.156 16.5203 61.476C16.8723 61.796 17.3043 61.956 17.8163 61.956C18.5523 61.956 19.0723 61.648 19.3763 61.032H20.8523C20.6523 61.64 20.2883 62.14 19.7603 62.532C19.2403 62.916 18.5923 63.108 17.8163 63.108C17.1843 63.108 16.6163 62.968 16.1123 62.688C15.6163 62.4 15.2243 62 14.9363 61.488C14.6563 60.968 14.5163 60.368 14.5163 59.688C14.5163 59.008 14.6523 58.412 14.9243 57.9C15.2043 57.38 15.5923 56.98 16.0883 56.7C16.5923 56.42 17.1683 56.28 17.8163 56.28C18.4403 56.28 18.9963 56.416 19.4843 56.688C19.9723 56.96 20.3523 57.344 20.6243 57.84C20.8963 58.328 21.0323 58.892 21.0323 59.532ZM19.6043 59.1C19.5963 58.596 19.4163 58.192 19.0643 57.888C18.7123 57.584 18.2763 57.432 17.7563 57.432C17.2843 57.432 16.8803 57.584 16.5443 57.888C16.2083 58.184 16.0083 58.588 15.9443 59.1H19.6043ZM24.9345 61.776L26.8065 56.388H28.2585L25.7385 63H24.1065L21.5985 56.388H23.0625L24.9345 61.776ZM35.3526 59.532C35.3526 59.78 35.3366 60.004 35.3046 60.204H30.2526C30.2926 60.732 30.4886 61.156 30.8406 61.476C31.1926 61.796 31.6246 61.956 32.1366 61.956C32.8726 61.956 33.3926 61.648 33.6966 61.032H35.1726C34.9726 61.64 34.6086 62.14 34.0806 62.532C33.5606 62.916 32.9126 63.108 32.1366 63.108C31.5046 63.108 30.9366 62.968 30.4326 62.688C29.9366 62.4 29.5446 62 29.2566 61.488C28.9766 60.968 28.8366 60.368 28.8366 59.688C28.8366 59.008 28.9726 58.412 29.2446 57.9C29.5246 57.38 29.9126 56.98 30.4086 56.7C30.9126 56.42 31.4886 56.28 32.1366 56.28C32.7606 56.28 33.3166 56.416 33.8046 56.688C34.2926 56.96 34.6726 57.344 34.9446 57.84C35.2166 58.328 35.3526 58.892 35.3526 59.532ZM33.9246 59.1C33.9166 58.596 33.7366 58.192 33.3846 57.888C33.0326 57.584 32.5966 57.432 32.0766 57.432C31.6046 57.432 31.2006 57.584 30.8646 57.888C30.5286 58.184 30.3286 58.588 30.2646 59.1H33.9246ZM38.0668 57.348C38.2668 57.012 38.5308 56.752 38.8588 56.568C39.1948 56.376 39.5908 56.28 40.0468 56.28V57.696H39.6988C39.1628 57.696 38.7548 57.832 38.4748 58.104C38.2028 58.376 38.0668 58.848 38.0668 59.52V63H36.6988V56.388H38.0668V57.348ZM40.8483 59.664C40.8483 59 40.9843 58.412 41.2563 57.9C41.5363 57.388 41.9123 56.992 42.3843 56.712C42.8643 56.424 43.3923 56.28 43.9683 56.28C44.4883 56.28 44.9403 56.384 45.3243 56.592C45.7163 56.792 46.0283 57.044 46.2603 57.348V56.388H47.6403V63H46.2603V62.016C46.0283 62.328 45.7123 62.588 45.3123 62.796C44.9123 63.004 44.4563 63.108 43.9443 63.108C43.3763 63.108 42.8563 62.964 42.3843 62.676C41.9123 62.38 41.5363 61.972 41.2563 61.452C40.9843 60.924 40.8483 60.328 40.8483 59.664ZM46.2603 59.688C46.2603 59.232 46.1643 58.836 45.9723 58.5C45.7883 58.164 45.5443 57.908 45.2403 57.732C44.9363 57.556 44.6083 57.468 44.2563 57.468C43.9043 57.468 43.5763 57.556 43.2723 57.732C42.9683 57.9 42.7203 58.152 42.5283 58.488C42.3443 58.816 42.2523 59.208 42.2523 59.664C42.2523 60.12 42.3443 60.52 42.5283 60.864C42.7203 61.208 42.9683 61.472 43.2723 61.656C43.5843 61.832 43.9123 61.92 44.2563 61.92C44.6083 61.92 44.9363 61.832 45.2403 61.656C45.5443 61.48 45.7883 61.224 45.9723 60.888C46.1643 60.544 46.2603 60.144 46.2603 59.688ZM52.1011 56.28C52.6131 56.28 53.0651 56.384 53.4571 56.592C53.8571 56.792 54.1691 57.044 54.3931 57.348V56.388H55.7731V63.108C55.7731 63.716 55.6451 64.256 55.3891 64.728C55.1331 65.208 54.7611 65.584 54.2731 65.856C53.7931 66.128 53.2171 66.264 52.5451 66.264C51.6491 66.264 50.9051 66.052 50.3131 65.628C49.7211 65.212 49.3851 64.644 49.3051 63.924H50.6611C50.7651 64.268 50.9851 64.544 51.3211 64.752C51.6651 64.968 52.0731 65.076 52.5451 65.076C53.0971 65.076 53.5411 64.908 53.8771 64.572C54.2211 64.236 54.3931 63.748 54.3931 63.108V62.004C54.1611 62.316 53.8451 62.58 53.4451 62.796C53.0531 63.004 52.6051 63.108 52.1011 63.108C51.5251 63.108 50.9971 62.964 50.5171 62.676C50.0451 62.38 49.6691 61.972 49.3891 61.452C49.1171 60.924 48.9811 60.328 48.9811 59.664C48.9811 59 49.1171 58.412 49.3891 57.9C49.6691 57.388 50.0451 56.992 50.5171 56.712C50.9971 56.424 51.5251 56.28 52.1011 56.28ZM54.3931 59.688C54.3931 59.232 54.2971 58.836 54.1051 58.5C53.9211 58.164 53.6771 57.908 53.3731 57.732C53.0691 57.556 52.7411 57.468 52.3891 57.468C52.0371 57.468 51.7091 57.556 51.4051 57.732C51.1011 57.9 50.8531 58.152 50.6611 58.488C50.4771 58.816 50.3851 59.208 50.3851 59.664C50.3851 60.12 50.4771 60.52 50.6611 60.864C50.8531 61.208 51.1011 61.472 51.4051 61.656C51.7171 61.832 52.0451 61.92 52.3891 61.92C52.7411 61.92 53.0691 61.832 53.3731 61.656C53.6771 61.48 53.9211 61.224 54.1051 60.888C54.2971 60.544 54.3931 60.144 54.3931 59.688ZM63.6299 59.532C63.6299 59.78 63.6139 60.004 63.5819 60.204H58.5299C58.5699 60.732 58.7659 61.156 59.1179 61.476C59.4699 61.796 59.9019 61.956 60.4139 61.956C61.1499 61.956 61.6699 61.648 61.9739 61.032H63.4499C63.2499 61.64 62.8859 62.14 62.3579 62.532C61.8379 62.916 61.1899 63.108 60.4139 63.108C59.7819 63.108 59.2139 62.968 58.7099 62.688C58.2139 62.4 57.8219 62 57.5339 61.488C57.2539 60.968 57.1139 60.368 57.1139 59.688C57.1139 59.008 57.2499 58.412 57.5219 57.9C57.8019 57.38 58.1899 56.98 58.6859 56.7C59.1899 56.42 59.7659 56.28 60.4139 56.28C61.0379 56.28 61.5939 56.416 62.0819 56.688C62.5699 56.96 62.9499 57.344 63.2219 57.84C63.4939 58.328 63.6299 58.892 63.6299 59.532ZM62.2019 59.1C62.1939 58.596 62.0139 58.192 61.6619 57.888C61.3099 57.584 60.8739 57.432 60.3539 57.432C59.8819 57.432 59.4779 57.584 59.1419 57.888C58.8059 58.184 58.6059 58.588 58.5419 59.1H62.2019ZM67.3762 63.108C66.8562 63.108 66.3882 63.016 65.9722 62.832C65.5642 62.64 65.2402 62.384 65.0002 62.064C64.7602 61.736 64.6322 61.372 64.6162 60.972H66.0322C66.0562 61.252 66.1882 61.488 66.4282 61.68C66.6762 61.864 66.9842 61.956 67.3522 61.956C67.7362 61.956 68.0322 61.884 68.2402 61.74C68.4562 61.588 68.5642 61.396 68.5642 61.164C68.5642 60.916 68.4442 60.732 68.2042 60.612C67.9722 60.492 67.6002 60.36 67.0882 60.216C66.5922 60.08 66.1882 59.948 65.8762 59.82C65.5642 59.692 65.2922 59.496 65.0602 59.232C64.8362 58.968 64.7242 58.62 64.7242 58.188C64.7242 57.836 64.8282 57.516 65.0362 57.228C65.2442 56.932 65.5402 56.7 65.9242 56.532C66.3162 56.364 66.7642 56.28 67.2682 56.28C68.0202 56.28 68.6242 56.472 69.0802 56.856C69.5442 57.232 69.7922 57.748 69.8242 58.404H68.4562C68.4322 58.108 68.3122 57.872 68.0962 57.696C67.8802 57.52 67.5882 57.432 67.2202 57.432C66.8602 57.432 66.5842 57.5 66.3922 57.636C66.2002 57.772 66.1042 57.952 66.1042 58.176C66.1042 58.352 66.1682 58.5 66.2962 58.62C66.4242 58.74 66.5802 58.836 66.7642 58.908C66.9482 58.972 67.2202 59.056 67.5802 59.16C68.0602 59.288 68.4522 59.42 68.7562 59.556C69.0682 59.684 69.3362 59.876 69.5602 60.132C69.7842 60.388 69.9002 60.728 69.9082 61.152C69.9082 61.528 69.8042 61.864 69.5962 62.16C69.3882 62.456 69.0922 62.688 68.7082 62.856C68.3322 63.024 67.8882 63.108 67.3762 63.108Z" fill="#828487"/>
</svg>
