<svg width="77" height="78" viewBox="0 0 77 78" fill="none" xmlns="http://www.w3.org/2000/svg">
<path fill-rule="evenodd" clip-rule="evenodd" d="M51.5314 25.4419C52.1263 25.9429 52.483 26.7856 52.4816 27.6872C52.4858 28.5754 52.1444 29.4099 51.568 29.9209C51.7721 30.4726 51.8781 31.0739 51.8786 31.6826V35.3038C51.8743 35.9009 51.7683 36.4898 51.568 37.0309C52.3442 37.7041 52.6826 38.9355 52.4029 40.0695C52.1232 41.2035 51.2905 41.9762 50.3482 41.9762C49.052 42.0097 47.768 41.6545 46.6021 40.94C45.3346 40.1803 43.8631 40.1803 42.5956 40.94C41.4298 41.6551 40.1457 42.0104 38.8495 41.9762C38.6946 41.98 38.5857 41.9834 38.5116 41.9863C38.4373 41.9834 38.3275 41.98 38.1708 41.9762C36.8747 42.0077 35.5911 41.6526 34.4247 40.94C33.8057 40.537 33.1156 40.3389 32.4191 40.3642C31.7243 40.3399 31.0358 40.538 30.4182 40.94C29.2517 41.6526 27.9681 42.0077 26.6721 41.9762C25.7298 41.9762 24.8971 41.2035 24.6174 40.0695C24.3377 38.9355 24.676 37.7041 25.4523 37.0309C25.2519 36.4898 25.146 35.9009 25.1417 35.3038V31.6653C25.1422 31.0566 25.2482 30.4554 25.4523 29.9037C24.8631 29.4002 24.5102 28.5613 24.5102 27.6642C24.5102 26.767 24.8631 25.9282 25.4523 25.4247C25.2363 24.8609 25.1239 24.243 25.1234 23.617V22.2636C25.1218 21.6682 25.2215 21.0793 25.4158 20.5365C24.6471 19.8583 24.317 18.6297 24.6005 17.5025C24.884 16.3753 25.7155 15.6107 26.6538 15.6142C27.3502 15.6396 28.0403 15.4415 28.6593 15.0385C29.8236 14.324 31.1061 13.9688 32.4009 14.0022C33.6971 13.9681 34.9812 14.3233 36.147 15.0385C36.766 15.4415 37.4561 15.6396 38.1525 15.6142C38.8474 15.6386 39.5358 15.4405 40.1535 15.0385C40.2986 14.9499 40.4206 14.8722 40.5254 14.8056C40.8419 14.6042 41.0004 14.5034 41.159 14.5033C41.2742 14.5032 41.3895 14.5564 41.5655 14.663C43.7619 13.671 46.1914 13.7962 48.3289 15.0385C48.9466 15.4405 49.635 15.6386 50.3299 15.6142C51.2682 15.6107 52.0997 16.3753 52.3832 17.5025C52.6667 18.6297 52.3366 19.8583 51.568 20.5365C51.7622 21.0793 51.8619 21.6682 51.8603 22.2636V23.6342C51.8598 24.2603 51.7474 24.8781 51.5314 25.4419ZM38.51 42C38.6271 42 38.7447 41.9954 38.5116 41.9863C38.2764 41.9955 38.3929 42 38.51 42ZM50.3299 29.2473C50.43 29.2466 50.5296 29.2311 50.6269 29.2013C50.781 29.1502 50.9264 29.0644 51.0746 28.9595C51.4005 28.6629 51.5913 28.1848 51.5858 27.6782C51.5804 27.1716 51.3793 26.7002 51.0471 26.4149C50.9095 26.2959 50.7541 26.2136 50.5903 26.1731C50.5048 26.1496 50.4174 26.138 50.3299 26.1385H49.9325C49.2453 26.0972 48.5728 25.8736 47.9589 25.4822C47.5902 25.2552 47.2082 25.0685 46.8172 24.9232C46.9463 24.7824 47.0157 24.5702 46.9996 24.3517V23.7556C47.17 23.8663 47.3247 24.0136 47.4566 24.1393C47.7234 24.3935 47.8972 24.559 47.9198 24.1536C48.0577 24.2255 48.1941 24.3018 48.3289 24.3826C48.9455 24.7885 49.6347 24.9868 50.3299 24.9583C50.4449 24.9619 50.5595 24.9773 50.6725 25.0044C50.8497 24.5757 50.9436 24.1002 50.9466 23.6169V22.2636C50.9471 21.8326 50.8739 21.4065 50.7319 21.0143C50.6028 21.0494 50.4711 21.0668 50.339 21.0661C49.5224 21.0823 48.7083 20.9485 47.9223 20.6689V24.054C47.9224 24.0905 47.9215 24.1236 47.9198 24.1536C47.6193 23.997 47.3121 23.8617 46.9996 23.7485V19.8744C47 19.685 47.0744 19.5079 47.1985 19.4009C47.3227 19.294 47.4806 19.2708 47.6209 19.339C48.3925 19.705 49.2086 19.8998 50.033 19.9147H50.33C50.4428 19.9114 50.5548 19.8902 50.6634 19.8514C50.8165 19.7977 50.9595 19.7057 51.0837 19.5808C51.5026 19.1748 51.6696 18.4776 51.4991 17.8473C51.3286 17.2169 50.8584 16.7935 50.33 16.7944C49.5079 16.8231 48.6931 16.5936 47.9589 16.1266C45.8177 14.8756 41.5764 15.479 40.5281 16.1266C39.7921 16.5927 38.976 16.8222 38.1525 16.7944C37.3291 16.8222 36.513 16.5927 35.777 16.1266C34.7274 15.4781 33.5696 15.1563 32.4009 15.1882C31.2322 15.1563 30.0745 15.4781 29.0249 16.1266C28.2907 16.5936 27.4759 16.8231 26.6538 16.7944C25.9701 16.7944 25.4158 17.4929 25.4158 18.3546C25.4161 18.8291 25.5896 19.2771 25.8863 19.5693C26.0106 19.6942 26.1535 19.7862 26.3066 19.8399C26.4152 19.8786 26.5273 19.8999 26.6401 19.9032H26.9371C27.8461 19.8923 28.7446 19.6576 29.5822 19.2124L30.0162 18.9821C30.2446 18.8554 30.4548 18.7403 30.6786 18.6367C31.2282 18.4008 31.8069 18.2916 32.3872 18.3143C32.969 18.2912 33.5493 18.4005 34.1004 18.6367C34.3059 18.7403 34.5344 18.8554 34.7628 18.9821L35.2196 19.2124C36.1392 19.7037 37.1311 19.9431 38.1297 19.9147C39.1388 19.946 40.1417 19.7066 41.0718 19.2124L41.2271 19.2181C41.3477 19.2825 41.4257 19.3396 41.4719 19.3893C41.4376 19.3946 41.4039 19.4047 41.3713 19.4196C40.6618 19.7271 41.782 19.7228 41.4719 19.3893C41.4885 19.3867 41.5053 19.3853 41.522 19.3851C41.6173 19.3859 41.7099 19.4241 41.787 19.4945C41.9068 19.6019 41.9782 19.7755 41.9789 19.9608V25.4247C42.0044 25.7711 42.235 26.2836 42.5111 26.2836C42.7872 26.2836 43.0178 26.0186 43.0433 25.6722V23.5475C43.0132 22.872 43.282 22.231 43.7418 21.8819C43.9922 21.6917 44.1828 21.744 44.43 21.8118C44.6367 21.8685 44.8829 21.9361 45.2367 21.8819C45.6894 21.8124 45.8619 22.6395 45.9211 23.4755C45.8759 23.4604 45.832 23.4571 45.7896 23.4634C45.5334 23.4252 45.2762 23.3994 45.0185 23.386C44.9967 23.1904 44.9073 23.0136 44.7706 22.9069C44.5981 22.7723 44.3802 22.7723 44.2078 22.9069C44.0735 23.0116 43.9849 23.1839 43.9611 23.3752H43.9569V23.4171C43.9539 23.4581 43.9539 23.4998 43.9569 23.5418V23.4171C43.958 23.4031 43.9594 23.3891 43.9611 23.3752H44.5874C44.7312 23.3749 44.8749 23.3785 45.0185 23.386C45.0242 23.4369 45.0253 23.4892 45.0214 23.5418V24.0772C45.0221 24.4098 45.0946 24.285 45.2234 24.0634C45.3572 23.8333 45.5517 23.4987 45.7896 23.4634C45.8336 23.47 45.8777 23.4769 45.9217 23.4843C45.9489 23.8737 45.9516 24.2644 45.9468 24.5666C45.9413 24.537 45.9374 24.5069 45.9351 24.4763V24.3517C45.932 24.3936 45.9321 24.4353 45.9351 24.4763V24.669C45.4898 24.5768 45.0371 24.5365 44.5828 24.5496H43.9524V25.6664C43.9536 26.3448 43.6514 26.9661 43.1712 27.2727C43.0178 27.3748 42.8503 27.4393 42.6778 27.4627C42.5671 27.4972 42.4518 27.5011 42.3397 27.4742C42.1672 27.4508 41.9998 27.3863 41.8464 27.2842C41.424 27.013 41.3927 26.8964 41.2801 26.4774C41.2644 26.4191 41.2471 26.3549 41.227 26.2836C41.1788 26.0936 41.1952 25.8799 41.2094 25.695C41.241 25.2849 41.2616 25.0161 40.5418 25.4592C39.8065 25.9281 38.9899 26.1577 38.1662 26.127C37.3425 26.1577 36.5259 25.9281 35.7906 25.4592C34.7406 24.8127 33.5829 24.4929 32.4146 24.5266C31.2463 24.494 30.0888 24.8137 29.0385 25.4592C28.4249 25.8514 27.7522 26.075 27.065 26.1155H26.6675C26.58 26.115 26.4926 26.1266 26.4071 26.15C26.2438 26.1925 26.0886 26.2746 25.9503 26.3918C25.6205 26.6797 25.4218 27.1512 25.4173 27.6567C25.4127 28.1623 25.6029 28.6392 25.9274 28.9365C26.0573 29.0529 26.2027 29.1387 26.3569 29.1898C26.4653 29.2152 26.5758 29.2229 26.6858 29.2128H27.0512C27.6696 29.1962 28.2837 29.0801 28.8786 28.8674C29.0198 28.8153 29.1722 28.8521 29.2882 28.9662C29.4041 29.0804 29.4693 29.2579 29.4634 29.4431V33.7148C29.4889 34.0612 29.7195 34.3262 29.9956 34.3262C30.2717 34.3262 30.5023 34.0612 30.5278 33.7148V31.0148C30.5709 30.0482 31.2055 29.2922 31.9737 29.2922C32.7419 29.2922 33.3765 30.0482 33.4196 31.0148V31.5502C33.4451 31.8966 33.6758 32.1615 33.9518 32.1615C34.2279 32.1615 34.4586 31.8966 34.4841 31.5502V30.9745C34.5272 30.0079 35.1617 29.2519 35.93 29.2519C36.6982 29.2519 37.3327 30.0079 37.3759 30.9745V38.2456C37.3711 38.2915 37.3711 38.3379 37.3759 38.3838C37.4225 38.6935 37.6374 38.9177 37.8875 38.9177C38.1377 38.9177 38.3525 38.6935 38.3992 38.3838C38.4014 38.3397 38.4014 38.2955 38.3992 38.2514V29.7655C38.399 29.6758 38.3534 29.5967 38.3143 29.529C38.2213 29.368 38.1653 29.2709 38.8449 29.2473C39.8088 29.2782 40.7676 29.0628 41.6636 28.6141C41.8217 28.5353 41.971 28.4528 42.1161 28.3725L42.221 28.3147L42.7235 28.0384C42.8697 27.9693 43.022 27.9059 43.1803 27.8484C44.1017 27.5798 45.0595 27.5798 45.9808 27.8484C46.1452 27.9059 46.264 27.952 46.4376 28.0384C46.6112 28.1247 46.7802 28.2168 46.9538 28.3147C47.1274 28.4126 47.3148 28.5162 47.5158 28.6141C48.2957 29.0066 49.1249 29.221 49.9644 29.2473H50.3299ZM45.9447 24.671C45.9421 24.7857 45.9385 24.8837 45.9351 24.9589V24.669L45.9447 24.671ZM45.9755 24.6775C46.0179 24.8031 46.0904 24.912 46.186 24.9866C46.3584 25.1211 46.5763 25.1211 46.7487 24.9866C46.7731 24.9676 46.796 24.9463 46.8172 24.9232C46.5407 24.8204 46.2596 24.7384 45.9755 24.6775ZM45.9755 24.6775L45.9447 24.671C45.9455 24.6376 45.9462 24.6027 45.9468 24.5666C45.9538 24.6047 45.9634 24.6418 45.9755 24.6775ZM45.9217 23.4843C45.9215 23.4813 45.9213 23.4784 45.9211 23.4755C45.9333 23.4796 45.9455 23.4845 45.9579 23.4904C45.9458 23.4883 45.9338 23.4863 45.9217 23.4843ZM46.9741 23.7394L46.9996 23.7485V23.7556C46.9911 23.7501 46.9826 23.7447 46.9741 23.7394ZM46.5016 23.5881C46.6603 23.633 46.8178 23.6834 46.9741 23.7394C46.8265 23.6475 46.6675 23.5848 46.5016 23.5881ZM50.9466 35.3211V31.6826C50.9415 31.2288 50.8556 30.7822 50.6953 30.3758C50.575 30.4059 50.4526 30.4214 50.3299 30.4218C49.0341 30.4564 47.7502 30.1033 46.5838 29.3913C45.3163 28.6317 44.7705 28.3147 42.5773 29.3913C41.2035 30.0656 40.7521 30.103 40.3046 30.1401C40.0376 30.1622 39.772 30.1842 39.3128 30.3412V36.4322C39.6008 36.3227 39.8818 36.1861 40.1534 36.0235C40.3013 35.9334 40.4252 35.8547 40.5312 35.7873L40.5313 35.7873C41.0723 35.4436 41.1484 35.3953 41.5647 35.6448C43.7619 34.6578 46.1898 34.7821 48.3289 36.0177C48.9454 36.4236 49.6347 36.6219 50.3299 36.5934C50.454 36.597 50.5776 36.6124 50.6999 36.6395C50.8592 36.2287 50.9435 35.7782 50.9466 35.3211ZM50.3299 40.8708C50.6591 40.8709 50.9747 40.7057 51.207 40.4119C51.4393 40.118 51.5692 39.7197 51.5634 39.2934C51.5595 38.579 51.1723 37.9584 50.6223 37.7851C50.5253 37.753 50.4256 37.7356 50.3254 37.7333H49.9873C49.2814 37.7023 48.5893 37.4783 47.9589 37.0769C45.8163 35.8338 41.5608 36.4268 40.5053 37.0769C40.1181 37.3144 39.7103 37.4941 39.2901 37.6124V38.2687C39.2923 38.3127 39.2923 38.357 39.2901 38.4011C39.2789 38.5987 39.2435 38.7929 39.185 38.9768C39.1135 39.1933 39.0078 39.3891 38.8743 39.5525C38.6078 39.903 38.2408 40.1041 37.8556 40.1109C37.4718 40.1092 37.1041 39.9168 36.8323 39.5755C36.7017 39.4103 36.5978 39.2148 36.5262 38.9998C36.4634 38.8177 36.4278 38.6225 36.4211 38.4241C36.4189 38.3781 36.4189 38.3319 36.4211 38.2859V37.4512C36.2064 37.3533 36.0008 37.2439 35.777 37.1172C34.7269 36.4707 33.5692 36.1509 32.4009 36.1846C31.2341 36.1518 30.078 36.4716 29.0294 37.1172C28.3943 37.5193 27.6976 37.7432 26.9873 37.7736H26.6538C26.5536 37.7759 26.4539 37.7933 26.3569 37.8254C26.2017 37.8718 26.0546 37.9537 25.9229 38.0672C25.4895 38.4653 25.3087 39.1698 25.4752 39.8122C25.6417 40.4547 26.1175 40.8891 26.6538 40.8881C27.8225 40.92 28.9803 40.5982 30.0299 39.9497C30.2889 39.799 30.5542 39.6664 30.8248 39.5525C31.3354 39.3574 31.8675 39.2661 32.4009 39.2819C32.9359 39.2655 33.4695 39.3568 33.9816 39.5525C34.2472 39.6613 34.508 39.7882 34.7628 39.9324C35.8165 40.5837 36.9792 40.9055 38.1525 40.8708C38.5121 40.8807 38.6042 40.889 38.5933 40.895C38.3707 40.902 38.3653 40.905 38.4183 40.9047C38.4712 40.9044 38.5826 40.9008 38.5933 40.895C38.6549 40.893 38.7331 40.8907 38.8312 40.8881C39.9999 40.92 41.1577 40.5982 42.2073 39.9497C42.4666 39.8 42.7319 39.6674 43.0022 39.5525C44.035 39.1916 45.1262 39.1916 46.159 39.5525C46.4295 39.6598 46.6949 39.7866 46.9539 39.9324C48.0041 40.5786 49.1614 40.9003 50.3299 40.8708ZM26.0371 35.3211V31.6826C26.038 31.2171 26.124 30.7581 26.2883 30.3412C26.4087 30.3713 26.5311 30.3868 26.6538 30.3873C27.2764 30.3942 27.8978 30.3209 28.5086 30.1685V33.6745C28.5051 34.5781 29.0285 35.3479 29.7375 35.4823C29.3662 35.6384 29.0018 35.819 28.6456 36.0234C28.0272 36.4285 27.3367 36.6268 26.6401 36.5991C26.516 36.6028 26.3923 36.6182 26.27 36.6452C26.1127 36.2322 26.033 35.7791 26.0371 35.3211ZM31.4004 33.686C31.3969 34.2702 31.173 34.8174 30.7974 35.1598C31.3259 35.0305 31.8626 34.9611 32.4009 34.9526C33.6966 34.9193 34.9802 35.2724 36.147 35.9831L36.4211 36.1328V30.9514C36.3956 30.605 36.165 30.34 35.8889 30.34C35.6128 30.34 35.3822 30.605 35.3567 30.9514V31.5271C35.3135 32.4937 34.679 33.2496 33.9108 33.2496C33.1425 33.2496 32.508 32.4937 32.4649 31.5271V30.9859C32.4394 30.6395 32.2087 30.3746 31.9326 30.3746C31.6566 30.3746 31.4259 30.6395 31.4004 30.9859V33.686ZM26.2609 20.997C26.1138 21.3936 26.0374 21.8259 26.037 22.2636V23.6342C26.0393 24.1194 26.1333 24.597 26.3111 25.0274C26.4242 25.0004 26.5387 24.985 26.6538 24.9813C27.3504 25.009 28.0409 24.8107 28.6593 24.4056C29.8241 23.6935 31.1065 23.3403 32.4008 23.3751C33.6967 23.3396 34.9807 23.6928 36.1469 24.4056C36.7653 24.8107 37.4559 25.009 38.1525 24.9813C38.8477 25.0098 39.5369 24.8115 40.1534 24.4056C40.2986 24.3172 40.4206 24.2398 40.5254 24.1734C40.8089 23.9935 40.9656 23.8942 41.1091 23.8754C41.1873 23.1148 41.2919 21.4634 40.8585 20.5449C39.9877 20.9011 39.0731 21.0725 38.1525 21.0488C36.8568 21.0821 35.5732 20.729 34.4064 20.0183C33.7884 19.6117 33.0975 19.4134 32.4008 19.4426C31.7056 19.4142 31.0164 19.6125 30.3999 20.0183C29.233 20.729 27.9494 21.0821 26.6538 21.0488C26.5217 21.0495 26.39 21.0321 26.2609 20.997Z" fill="#828487"/>
<path d="M25.946 58.716C26.394 58.796 26.774 59.032 27.086 59.424C27.398 59.816 27.554 60.26 27.554 60.756C27.554 61.18 27.442 61.564 27.218 61.908C27.002 62.244 26.686 62.512 26.27 62.712C25.854 62.904 25.37 63 24.818 63H21.482V54.66H24.662C25.23 54.66 25.718 54.756 26.126 54.948C26.534 55.14 26.842 55.4 27.05 55.728C27.258 56.048 27.362 56.408 27.362 56.808C27.362 57.288 27.234 57.688 26.978 58.008C26.722 58.328 26.378 58.564 25.946 58.716ZM22.85 58.164H24.542C24.99 58.164 25.338 58.064 25.586 57.864C25.842 57.656 25.97 57.36 25.97 56.976C25.97 56.6 25.842 56.308 25.586 56.1C25.338 55.884 24.99 55.776 24.542 55.776H22.85V58.164ZM24.698 61.884C25.162 61.884 25.526 61.772 25.79 61.548C26.054 61.324 26.186 61.012 26.186 60.612C26.186 60.204 26.046 59.88 25.766 59.64C25.486 59.4 25.114 59.28 24.65 59.28H22.85V61.884H24.698ZM30.4086 57.348C30.6086 57.012 30.8726 56.752 31.2006 56.568C31.5366 56.376 31.9326 56.28 32.3886 56.28V57.696H32.0406C31.5046 57.696 31.0966 57.832 30.8166 58.104C30.5446 58.376 30.4086 58.848 30.4086 59.52V63H29.0406V56.388H30.4086V57.348ZM39.7061 59.532C39.7061 59.78 39.6901 60.004 39.6581 60.204H34.6061C34.6461 60.732 34.8421 61.156 35.1941 61.476C35.5461 61.796 35.9781 61.956 36.4901 61.956C37.2261 61.956 37.7461 61.648 38.0501 61.032H39.5261C39.3261 61.64 38.9621 62.14 38.4341 62.532C37.9141 62.916 37.2661 63.108 36.4901 63.108C35.8581 63.108 35.2901 62.968 34.7861 62.688C34.2901 62.4 33.8981 62 33.6101 61.488C33.3301 60.968 33.1901 60.368 33.1901 59.688C33.1901 59.008 33.3261 58.412 33.5981 57.9C33.8781 57.38 34.2661 56.98 34.7621 56.7C35.2661 56.42 35.8421 56.28 36.4901 56.28C37.1141 56.28 37.6701 56.416 38.1581 56.688C38.6461 56.96 39.0261 57.344 39.2981 57.84C39.5701 58.328 39.7061 58.892 39.7061 59.532ZM38.2781 59.1C38.2701 58.596 38.0901 58.192 37.7381 57.888C37.3861 57.584 36.9501 57.432 36.4301 57.432C35.9581 57.432 35.5541 57.584 35.2181 57.888C34.8821 58.184 34.6821 58.588 34.6181 59.1H38.2781ZM40.5963 59.664C40.5963 59 40.7323 58.412 41.0043 57.9C41.2843 57.388 41.6603 56.992 42.1323 56.712C42.6123 56.424 43.1403 56.28 43.7163 56.28C44.2363 56.28 44.6883 56.384 45.0723 56.592C45.4643 56.792 45.7763 57.044 46.0083 57.348V56.388H47.3883V63H46.0083V62.016C45.7763 62.328 45.4603 62.588 45.0603 62.796C44.6603 63.004 44.2043 63.108 43.6923 63.108C43.1243 63.108 42.6043 62.964 42.1323 62.676C41.6603 62.38 41.2843 61.972 41.0043 61.452C40.7323 60.924 40.5963 60.328 40.5963 59.664ZM46.0083 59.688C46.0083 59.232 45.9123 58.836 45.7203 58.5C45.5363 58.164 45.2923 57.908 44.9883 57.732C44.6843 57.556 44.3563 57.468 44.0043 57.468C43.6523 57.468 43.3243 57.556 43.0203 57.732C42.7163 57.9 42.4683 58.152 42.2763 58.488C42.0923 58.816 42.0003 59.208 42.0003 59.664C42.0003 60.12 42.0923 60.52 42.2763 60.864C42.4683 61.208 42.7163 61.472 43.0203 61.656C43.3323 61.832 43.6603 61.92 44.0043 61.92C44.3563 61.92 44.6843 61.832 44.9883 61.656C45.2923 61.48 45.5363 61.224 45.7203 60.888C45.9123 60.544 46.0083 60.144 46.0083 59.688ZM48.7292 59.664C48.7292 59 48.8652 58.412 49.1372 57.9C49.4172 57.388 49.7932 56.992 50.2652 56.712C50.7452 56.424 51.2772 56.28 51.8612 56.28C52.2932 56.28 52.7172 56.376 53.1332 56.568C53.5572 56.752 53.8932 57 54.1412 57.312V54.12H55.5212V63H54.1412V62.004C53.9172 62.324 53.6052 62.588 53.2052 62.796C52.8132 63.004 52.3612 63.108 51.8492 63.108C51.2732 63.108 50.7452 62.964 50.2652 62.676C49.7932 62.38 49.4172 61.972 49.1372 61.452C48.8652 60.924 48.7292 60.328 48.7292 59.664ZM54.1412 59.688C54.1412 59.232 54.0452 58.836 53.8532 58.5C53.6692 58.164 53.4252 57.908 53.1212 57.732C52.8172 57.556 52.4892 57.468 52.1372 57.468C51.7852 57.468 51.4572 57.556 51.1532 57.732C50.8492 57.9 50.6012 58.152 50.4092 58.488C50.2252 58.816 50.1332 59.208 50.1332 59.664C50.1332 60.12 50.2252 60.52 50.4092 60.864C50.6012 61.208 50.8492 61.472 51.1532 61.656C51.4652 61.832 51.7932 61.92 52.1372 61.92C52.4892 61.92 52.8172 61.832 53.1212 61.656C53.4252 61.48 53.6692 61.224 53.8532 60.888C54.0452 60.544 54.1412 60.144 54.1412 59.688Z" fill="#828487"/>
</svg>
