<svg width="48" height="37" viewBox="0 0 48 37" fill="none" xmlns="http://www.w3.org/2000/svg">
<path d="M45.5001 27.95H2.5001C1.3176 27.95 0.350098 26.9825 0.350098 25.8V2.15C0.350098 0.9675 1.3176 0 2.5001 0H45.5001C46.6826 0 47.6501 0.9675 47.6501 2.15V25.8C47.6501 26.9825 46.6826 27.95 45.5001 27.95Z" fill="#19AD58"/>
<path d="M40.125 19.3499C37.6525 19.3499 35.395 20.5324 34.105 22.4674C33.03 21.9299 31.8475 21.4999 30.45 21.4999C26.6875 21.4999 23.57 24.2949 23.0325 27.9499H45.5C46.575 27.9499 47.435 27.1974 47.65 26.1224C47.22 22.3599 43.995 19.3499 40.125 19.3499Z" fill="#0D8944"/>
<path d="M41.2002 25.7999H6.80024C6.80024 23.4349 4.86524 21.4999 2.50024 21.4999V6.4499C4.86524 6.4499 6.80024 4.5149 6.80024 2.1499H41.2002C41.2002 4.5149 43.1352 6.4499 45.5002 6.4499V21.4999C43.1352 21.4999 41.2002 23.4349 41.2002 25.7999Z" fill="#47CA57"/>
<path d="M40.125 19.3499C37.6525 19.3499 35.395 20.5324 34.105 22.4674C33.03 21.9299 31.8475 21.4999 30.45 21.4999C27.44 21.4999 24.86 23.2199 23.6775 25.7999H41.2C41.2 23.4349 43.0275 21.6074 45.3925 21.4999C43.995 20.2099 42.1675 19.3499 40.125 19.3499Z" fill="#0E9347"/>
<path d="M24.0001 23.65C28.7498 23.65 32.6001 19.3184 32.6001 13.975C32.6001 8.63169 28.7498 4.30005 24.0001 4.30005C19.2505 4.30005 15.4001 8.63169 15.4001 13.975C15.4001 19.3184 19.2505 23.65 24.0001 23.65Z" fill="#19AD58"/>
<path d="M11.1 16.125C12.2874 16.125 13.25 15.1624 13.25 13.975C13.25 12.7875 12.2874 11.825 11.1 11.825C9.91254 11.825 8.94995 12.7875 8.94995 13.975C8.94995 15.1624 9.91254 16.125 11.1 16.125Z" fill="#19AD58"/>
<path d="M36.9 16.125C38.0874 16.125 39.05 15.1624 39.05 13.975C39.05 12.7875 38.0874 11.825 36.9 11.825C35.7126 11.825 34.75 12.7875 34.75 13.975C34.75 15.1624 35.7126 16.125 36.9 16.125Z" fill="#19AD58"/>
<path d="M25.0752 12.9001H22.9252C22.2802 12.9001 21.8502 12.4701 21.8502 11.8251C21.8502 11.1801 22.2802 10.7501 22.9252 10.7501H26.1502C26.7952 10.7501 27.2252 10.3201 27.2252 9.67515C27.2252 9.03015 26.7952 8.60015 26.1502 8.60015H25.0752C25.0752 7.95515 24.6452 7.52515 24.0002 7.52515C23.3552 7.52515 22.9252 7.95515 22.9252 8.60015C21.0977 8.60015 19.7002 9.99765 19.7002 11.8251C19.7002 13.6526 21.0977 15.0501 22.9252 15.0501H25.0752C25.7202 15.0501 26.1502 15.4801 26.1502 16.1251C26.1502 16.7701 25.7202 17.2001 25.0752 17.2001H21.8502C21.2052 17.2001 20.7752 17.6301 20.7752 18.2751C20.7752 18.9201 21.2052 19.3501 21.8502 19.3501H22.9252C22.9252 19.9951 23.3552 20.4251 24.0002 20.4251C24.6452 20.4251 25.0752 19.9951 25.0752 19.3501C26.9027 19.3501 28.3002 17.9526 28.3002 16.1251C28.3002 14.2976 26.9027 12.9001 25.0752 12.9001Z" fill="#55E466"/>
<path d="M28.3001 36.55C32.4561 36.55 35.8251 33.1809 35.8251 29.025C35.8251 24.8691 32.4561 21.5 28.3001 21.5C24.1442 21.5 20.7751 24.8691 20.7751 29.025C20.7751 33.1809 24.1442 36.55 28.3001 36.55Z" fill="#FFCA5D"/>
<path d="M37.975 34.3999C42.1309 34.3999 45.5 31.0308 45.5 26.8749C45.5 22.7189 42.1309 19.3499 37.975 19.3499C33.819 19.3499 30.45 22.7189 30.45 26.8749C30.45 31.0308 33.819 34.3999 37.975 34.3999Z" fill="#F6B545"/>
<path d="M37.975 19.3499C33.7825 19.3499 30.45 22.6824 30.45 26.8749C30.45 31.0674 33.7825 34.3999 37.975 34.3999C42.1675 34.3999 45.5 31.0674 45.5 26.8749C45.5 22.6824 42.1675 19.3499 37.975 19.3499ZM37.975 32.2499C34.965 32.2499 32.6 29.8849 32.6 26.8749C32.6 23.8649 34.965 21.4999 37.975 21.4999C40.985 21.4999 43.35 23.8649 43.35 26.8749C43.35 29.8849 40.985 32.2499 37.975 32.2499Z" fill="#FFCB5B"/>
<path d="M37.9751 34.2925C42.1676 34.4 45.5001 30.96 45.5001 26.875H45.3926C44.8551 26.875 44.4251 27.305 44.3176 27.8425C44.1026 29.3475 43.3501 30.745 42.2751 31.7125C41.4151 32.5725 40.2326 33.11 38.9426 33.325C38.4051 33.325 37.9751 33.755 37.9751 34.2925Z" fill="#F6B545"/>
<path d="M37.975 19.4575C33.7825 19.35 30.45 22.79 30.45 26.875H30.5575C31.095 26.875 31.525 26.445 31.6325 25.9075C31.8475 24.4025 32.6 23.005 33.675 22.0375C34.535 21.1775 35.7174 20.64 37.0074 20.425C37.545 20.425 37.975 19.995 37.975 19.4575Z" fill="#FFE27A"/>
<path d="M33.3526 27.6275C33.3526 24.6175 35.7176 22.2525 38.7276 22.2525C40.0176 22.2525 41.2001 22.6825 42.1676 23.5425C41.0926 22.2525 39.6951 21.5 37.9751 21.5C34.9651 21.5 32.6001 23.865 32.6001 26.875C32.6001 28.595 33.3526 29.9925 34.5351 30.96C33.7826 30.1 33.3526 28.9175 33.3526 27.6275Z" fill="#F19920"/>
<path d="M41.2001 30.2074C41.0926 30.2074 40.9851 30.2074 40.8776 30.0999C40.6626 29.8849 40.6626 29.5624 40.8776 29.3474C41.5226 28.7024 41.8451 27.7349 41.8451 26.8749C41.8451 26.5524 42.0601 26.3374 42.3826 26.3374C42.7051 26.3374 42.9201 26.5524 42.9201 26.8749C42.9201 28.0574 42.4901 29.2399 41.7376 30.0999C41.5226 30.2074 41.3076 30.2074 41.2001 30.2074Z" fill="#FFCB5B"/>
<path d="M37.9751 30.1001C37.3301 30.1001 36.9001 29.6701 36.9001 29.0251V24.7251C36.9001 24.0801 37.3301 23.6501 37.9751 23.6501C38.6201 23.6501 39.0501 24.0801 39.0501 24.7251V29.0251C39.0501 29.6701 38.6201 30.1001 37.9751 30.1001Z" fill="#F19920"/>
<path d="M32.7076 21.5C34.7501 22.79 36.3626 24.94 36.7926 27.4125C36.9911 28.8841 37.0494 32.2446 35.6941 33.9137C32.6923 32.9276 30.5576 30.123 30.5576 26.7675C30.5576 24.725 31.4176 22.8975 32.7076 21.5Z" fill="#F19920"/>
<path d="M34.5351 30.9602C33.7826 29.9927 33.2451 28.8102 33.2451 27.5202C33.2451 26.0152 33.8901 24.6177 34.9651 23.6502C34.7501 23.3277 34.5351 23.1127 34.3201 22.8977C33.2451 23.8652 32.6001 25.2627 32.6001 26.8752C32.6001 28.5952 33.3526 29.9927 34.5351 30.9602ZM36.9001 27.5202V29.0252C36.9001 29.6702 37.3301 30.1002 37.9751 30.1002C38.6201 30.1002 39.0501 29.6702 39.0501 29.0252V28.8102C38.4051 28.2727 37.6526 27.8427 36.9001 27.5202Z" fill="#E78825"/>
<path d="M41.6301 32.25C40.8776 32.7875 39.9101 33.11 38.9426 33.325C38.4051 33.4325 37.9751 33.8625 37.9751 34.4C39.4801 34.4 40.7701 33.97 41.9526 33.2175L41.6301 32.25Z" fill="#F19920"/>
<path d="M32.6 21.6074C31.31 23.0049 30.45 24.8324 30.45 26.8749H30.5575C31.095 26.8749 31.525 26.4449 31.6325 25.9074C31.8475 24.4024 32.6 23.1124 33.5675 22.1449C33.245 22.0374 32.9225 21.8224 32.6 21.6074Z" fill="#FFCB5B"/>
<path d="M28.3001 36.55C32.4561 36.55 35.8251 33.1809 35.8251 29.025C35.8251 24.8691 32.4561 21.5 28.3001 21.5C24.1442 21.5 20.7751 24.8691 20.7751 29.025C20.7751 33.1809 24.1442 36.55 28.3001 36.55Z" fill="#F6B545"/>
<path d="M28.3001 21.5C24.1076 21.5 20.7751 24.8325 20.7751 29.025C20.7751 33.2175 24.1076 36.55 28.3001 36.55C32.4926 36.55 35.8251 33.2175 35.8251 29.025C35.8251 24.8325 32.4926 21.5 28.3001 21.5ZM28.3001 34.4C25.2901 34.4 22.9251 32.035 22.9251 29.025C22.9251 26.015 25.2901 23.65 28.3001 23.65C31.3101 23.65 33.6751 26.015 33.6751 29.025C33.6751 32.035 31.3101 34.4 28.3001 34.4Z" fill="#FFCB5B"/>
<path d="M28.3 36.4424C32.4925 36.5499 35.825 33.1099 35.825 29.0249H35.7176C35.1801 29.0249 34.75 29.4549 34.6425 29.9924C34.4275 31.4974 33.675 32.8949 32.6 33.8624C31.74 34.7224 30.5575 35.2599 29.2675 35.4749C28.73 35.4749 28.3 35.9049 28.3 36.4424Z" fill="#F6B545"/>
<path d="M28.3001 21.6074C24.1076 21.4999 20.7751 24.9399 20.7751 29.0249H20.8826C21.4201 29.0249 21.8501 28.5949 21.9576 28.0574C22.1726 26.5524 22.9251 25.1549 24.0001 24.1874C24.8601 23.3274 26.0426 22.7899 27.3326 22.5749C27.8701 22.5749 28.3001 22.1449 28.3001 21.6074Z" fill="#FFE27A"/>
<path d="M23.6778 29.7776C23.6778 26.7676 26.0428 24.4026 29.0528 24.4026C30.3428 24.4026 31.5253 24.8326 32.4928 25.6926C31.4178 24.4026 30.0203 23.6501 28.3003 23.6501C25.2903 23.6501 22.9253 26.0151 22.9253 29.0251C22.9253 30.7451 23.6778 32.1426 24.8603 33.1101C24.1078 32.2501 23.6778 31.0676 23.6778 29.7776Z" fill="#F19920"/>
<path d="M31.5253 32.3575C31.4178 32.3575 31.3103 32.3575 31.2028 32.25C30.9878 32.035 30.9878 31.7125 31.2028 31.4975C31.8478 30.8525 32.1703 29.885 32.1703 29.025C32.1703 28.7025 32.3853 28.4875 32.7078 28.4875C33.0303 28.4875 33.2453 28.7025 33.2453 29.025C33.2453 30.2075 32.8153 31.39 32.0628 32.25C31.8478 32.3575 31.6328 32.3575 31.5253 32.3575Z" fill="#FFCB5B"/>
<path d="M28.3001 32.25C27.6551 32.25 27.2251 31.82 27.2251 31.175V26.875C27.2251 26.23 27.6551 25.8 28.3001 25.8C28.9451 25.8 29.3751 26.23 29.3751 26.875V31.175C29.3751 31.82 28.9451 32.25 28.3001 32.25Z" fill="#F19920"/>
</svg>
