<svg width="77" height="78" viewBox="0 0 77 78" fill="none" xmlns="http://www.w3.org/2000/svg">
<path fill-rule="evenodd" clip-rule="evenodd" d="M30.2969 17.4049L32.0059 14.3103C32.1246 14.1232 32.2982 14.0031 32.5625 14H44.4375C44.6666 14.0002 44.8903 14.1249 44.9941 14.3103L46.7031 17.4049H47.875C48.2022 17.405 48.5 17.6753 48.5 17.9724V21.3774C48.5 21.6745 48.2022 21.9448 47.875 21.9449H46.8887L45.375 41.4768C45.3506 41.7589 45.0616 42 44.75 42H32.25C31.9384 42.0008 31.6494 41.7589 31.625 41.4768L30.1113 21.9449H29.125C28.7977 21.9448 28.5 21.6745 28.5 21.3774V17.9724C28.5 17.6753 28.7977 17.405 29.125 17.4049H30.2969ZM44.0566 15.135H32.9434L31.6934 17.405H45.3066L44.0566 15.135ZM29.75 18.54H47.25V20.81H29.75V18.54ZM45.6289 21.9448H31.3711L31.8398 28.0624H34.5742C35.4074 26.8783 36.8427 26.0762 38.5 26.0762C40.1573 26.0762 41.5926 26.8783 42.4258 28.0624H45.1602L45.6289 21.9448ZM38.5 27.2112C39.8296 27.2112 40.9733 27.8898 41.5469 28.887C41.6507 29.0725 41.8744 29.1972 42.1035 29.1974H45.0625L44.8477 31.4674H42.1035C41.8764 31.4674 41.6533 31.5867 41.5469 31.7688C40.9733 32.7661 39.8296 33.4536 38.5 33.4536C37.1704 33.4536 36.0267 32.7661 35.4531 31.7688C35.3467 31.5867 35.1236 31.4659 34.8965 31.4674H32.1523L31.9375 29.1974H34.8965C35.1256 29.1972 35.3493 29.0725 35.4531 28.887C36.0267 27.8898 37.1704 27.2112 38.5 27.2112ZM34.584 32.6023H32.25L32.8262 40.865H44.1738L44.75 32.6023H42.416C41.5816 33.7805 40.1525 34.5885 38.5 34.5885C36.8475 34.5885 35.4184 33.7805 34.584 32.6023Z" fill="#828487"/>
<path d="M19.0866 58.812C19.0866 57.996 19.2746 57.264 19.6506 56.616C20.0346 55.968 20.5506 55.464 21.1986 55.104C21.8546 54.736 22.5706 54.552 23.3466 54.552C24.2346 54.552 25.0226 54.772 25.7106 55.212C26.4066 55.644 26.9106 56.26 27.2226 57.06H25.5786C25.3626 56.62 25.0626 56.292 24.6786 56.076C24.2946 55.86 23.8506 55.752 23.3466 55.752C22.7946 55.752 22.3026 55.876 21.8706 56.124C21.4386 56.372 21.0986 56.728 20.8506 57.192C20.6106 57.656 20.4906 58.196 20.4906 58.812C20.4906 59.428 20.6106 59.968 20.8506 60.432C21.0986 60.896 21.4386 61.256 21.8706 61.512C22.3026 61.76 22.7946 61.884 23.3466 61.884C23.8506 61.884 24.2946 61.776 24.6786 61.56C25.0626 61.344 25.3626 61.016 25.5786 60.576H27.2226C26.9106 61.376 26.4066 61.992 25.7106 62.424C25.0226 62.856 24.2346 63.072 23.3466 63.072C22.5626 63.072 21.8466 62.892 21.1986 62.532C20.5506 62.164 20.0346 61.656 19.6506 61.008C19.2746 60.36 19.0866 59.628 19.0866 58.812ZM31.6918 63.108C31.0678 63.108 30.5038 62.968 29.9998 62.688C29.4958 62.4 29.0998 62 28.8118 61.488C28.5238 60.968 28.3798 60.368 28.3798 59.688C28.3798 59.016 28.5278 58.42 28.8238 57.9C29.1198 57.38 29.5238 56.98 30.0358 56.7C30.5478 56.42 31.1198 56.28 31.7518 56.28C32.3838 56.28 32.9558 56.42 33.4678 56.7C33.9798 56.98 34.3838 57.38 34.6798 57.9C34.9758 58.42 35.1238 59.016 35.1238 59.688C35.1238 60.36 34.9718 60.956 34.6678 61.476C34.3638 61.996 33.9478 62.4 33.4198 62.688C32.8998 62.968 32.3238 63.108 31.6918 63.108ZM31.6918 61.92C32.0438 61.92 32.3718 61.836 32.6758 61.668C32.9878 61.5 33.2398 61.248 33.4318 60.912C33.6238 60.576 33.7198 60.168 33.7198 59.688C33.7198 59.208 33.6278 58.804 33.4438 58.476C33.2598 58.14 33.0158 57.888 32.7118 57.72C32.4078 57.552 32.0798 57.468 31.7278 57.468C31.3758 57.468 31.0478 57.552 30.7438 57.72C30.4478 57.888 30.2118 58.14 30.0358 58.476C29.8598 58.804 29.7718 59.208 29.7718 59.688C29.7718 60.4 29.9518 60.952 30.3118 61.344C30.6798 61.728 31.1398 61.92 31.6918 61.92ZM39.2482 57.504H38.0242V63H36.6442V57.504H35.8642V56.388H36.6442V55.92C36.6442 55.16 36.8442 54.608 37.2442 54.264C37.6522 53.912 38.2882 53.736 39.1522 53.736V54.876C38.7362 54.876 38.4442 54.956 38.2762 55.116C38.1082 55.268 38.0242 55.536 38.0242 55.92V56.388H39.2482V57.504ZM43.2325 57.504H42.0085V63H40.6285V57.504H39.8485V56.388H40.6285V55.92C40.6285 55.16 40.8285 54.608 41.2285 54.264C41.6365 53.912 42.2725 53.736 43.1365 53.736V54.876C42.7205 54.876 42.4285 54.956 42.2605 55.116C42.0925 55.268 42.0085 55.536 42.0085 55.92V56.388H43.2325V57.504ZM50.5049 59.532C50.5049 59.78 50.4889 60.004 50.4569 60.204H45.4049C45.4449 60.732 45.6409 61.156 45.9929 61.476C46.3449 61.796 46.7769 61.956 47.2889 61.956C48.0249 61.956 48.5449 61.648 48.8489 61.032H50.3249C50.1249 61.64 49.7609 62.14 49.2329 62.532C48.7129 62.916 48.0649 63.108 47.2889 63.108C46.6569 63.108 46.0889 62.968 45.5849 62.688C45.0889 62.4 44.6969 62 44.4089 61.488C44.1289 60.968 43.9889 60.368 43.9889 59.688C43.9889 59.008 44.1249 58.412 44.3969 57.9C44.6769 57.38 45.0649 56.98 45.5609 56.7C46.0649 56.42 46.6409 56.28 47.2889 56.28C47.9129 56.28 48.4689 56.416 48.9569 56.688C49.4449 56.96 49.8249 57.344 50.0969 57.84C50.3689 58.328 50.5049 58.892 50.5049 59.532ZM49.0769 59.1C49.0689 58.596 48.8889 58.192 48.5369 57.888C48.1849 57.584 47.7489 57.432 47.2289 57.432C46.7569 57.432 46.3529 57.584 46.0169 57.888C45.6809 58.184 45.4809 58.588 45.4169 59.1H49.0769ZM57.9112 59.532C57.9112 59.78 57.8952 60.004 57.8632 60.204H52.8112C52.8512 60.732 53.0472 61.156 53.3992 61.476C53.7512 61.796 54.1832 61.956 54.6952 61.956C55.4312 61.956 55.9512 61.648 56.2552 61.032H57.7312C57.5312 61.64 57.1672 62.14 56.6392 62.532C56.1192 62.916 55.4712 63.108 54.6952 63.108C54.0632 63.108 53.4952 62.968 52.9912 62.688C52.4952 62.4 52.1032 62 51.8152 61.488C51.5352 60.968 51.3952 60.368 51.3952 59.688C51.3952 59.008 51.5312 58.412 51.8032 57.9C52.0832 57.38 52.4712 56.98 52.9672 56.7C53.4712 56.42 54.0472 56.28 54.6952 56.28C55.3192 56.28 55.8752 56.416 56.3632 56.688C56.8512 56.96 57.2312 57.344 57.5032 57.84C57.7752 58.328 57.9112 58.892 57.9112 59.532ZM56.4832 59.1C56.4752 58.596 56.2952 58.192 55.9432 57.888C55.5912 57.584 55.1552 57.432 54.6352 57.432C54.1632 57.432 53.7592 57.584 53.4232 57.888C53.0872 58.184 52.8872 58.588 52.8232 59.1H56.4832Z" fill="#828487"/>
</svg>
