<svg width="77" height="70" viewBox="0 0 77 70" fill="none" xmlns="http://www.w3.org/2000/svg">
<rect width="77" height="70" rx="8" fill="url(#paint0_linear_46_33)"/>
<path fill-rule="evenodd" clip-rule="evenodd" d="M38.5024 38C41.9453 37.9959 45.2666 36.7259 47.8341 34.4318V38H51.3335V29.5907C51.3592 29.5324 51.3843 29.474 51.4088 29.4157L52.5 28.3249V14.0834C52.5 12.1952 50.9713 10.0001 49.0006 10.0001H47.8341V13.5684C43.1845 9.40605 36.3417 8.82461 31.0567 12.1428C25.7717 15.4609 23.321 21.8773 25.0479 27.8746C26.7748 33.8719 32.2624 38.0016 38.5024 38ZM49.0006 11.1668C50.2569 11.1668 51.3336 12.771 51.3336 14.0835V27.8419L50.1671 29.0086V36.8334H49.0006V11.1668ZM47.8341 15.1918C45.4077 12.626 42.0335 11.1706 38.5024 11.1668C32.6489 11.1669 27.5375 15.1291 26.0772 20.7984C24.6168 26.4676 27.1777 32.4068 32.3025 35.2357C37.4272 38.0646 43.8165 37.066 47.8341 32.8084V15.1918Z" fill="white"/>
<path fill-rule="evenodd" clip-rule="evenodd" d="M31.5345 26.8524C31.5362 24.9703 33.0629 23.4459 34.9447 23.4475C36.8257 23.451 38.3487 24.977 38.349 26.8582C38.3474 28.7403 36.8207 30.2648 34.9389 30.2631C33.0571 30.2615 31.5329 28.7345 31.5345 26.8524ZM32.8721 27.7144C33.2197 28.5521 34.0378 29.0977 34.9446 29.0965C36.1794 29.0937 37.1796 28.0933 37.1825 26.8583C37.1837 25.9513 36.6382 25.133 35.8006 24.7854C34.963 24.4378 33.9985 24.6293 33.3573 25.2707C32.716 25.912 32.5245 26.8767 32.8721 27.7144Z" fill="white"/>
<path d="M40.8179 26.1917C40.7384 25.8812 40.4233 25.6929 40.1122 25.7701C39.8012 25.8474 39.6107 26.1612 39.6858 26.4729C39.9497 27.745 39.5711 29.0655 38.6733 30.0044C38.5217 30.1508 38.4609 30.3677 38.5143 30.5717C38.5676 30.7756 38.7269 30.9349 38.9308 30.9883C39.1347 31.0417 39.3516 30.9809 39.498 30.8292C40.6816 29.5991 41.1763 27.8609 40.8179 26.1917Z" fill="white"/>
<path fill-rule="evenodd" clip-rule="evenodd" d="M45.9135 15.421L44.747 14.2544C44.2128 13.7158 43.441 13.4867 42.6995 13.6466C41.958 13.8065 41.3491 14.3333 41.0843 15.0442C38.4532 14.2699 35.6144 14.6991 33.3297 16.2166C31.045 17.7341 29.5482 20.1846 29.2412 22.9104C28.0613 24.6101 27.7027 26.7482 28.2634 28.7399C28.8241 30.7316 30.2454 32.3685 32.1387 33.2027C33.2012 34.5221 34.8039 35.2895 36.4977 35.2899C37.0421 35.2963 37.584 35.2166 38.1034 35.0536C39.3086 34.6615 40.3719 33.9237 41.1613 32.932C44.0759 32.0722 46.387 29.8427 47.3514 26.9606C48.3158 24.0784 47.8121 20.9068 46.0021 18.4654C46.7785 17.5855 46.7397 16.2543 45.9135 15.421ZM43.1683 14.7671C43.4511 14.7668 43.7224 14.8791 43.9224 15.0792L45.0888 16.2459C45.3153 16.4689 45.4297 16.7818 45.4004 17.0983C45.3712 17.4149 45.2013 17.7015 44.9378 17.8792L44.9034 17.9008C44.7023 18.0265 44.465 18.0816 44.2292 18.0571H44.2058C44.0962 18.0434 43.9892 18.0134 43.8885 17.9678C43.8826 17.9652 43.877 17.962 43.8713 17.9587C43.8671 17.9563 43.8627 17.9538 43.8582 17.9515C43.7558 17.9022 43.662 17.8366 43.5806 17.7573L42.4141 16.5906C42.2084 16.3848 42.0966 16.1033 42.105 15.8124V15.8049C42.1171 15.2268 42.5902 14.7651 43.1683 14.7671ZM41.2476 20.0876C41.6644 20.5034 42.339 20.5034 42.7559 20.0876C43.1716 19.6707 43.1716 18.996 42.7559 18.5791L41.5894 17.4125C41.1704 17.011 40.5074 17.0181 40.0972 17.4285C39.6869 17.8388 39.6798 18.5019 40.0811 18.921L41.2476 20.0876ZM37.7173 33.9528C35.9483 34.4819 34.0377 33.8402 32.9465 32.3504L32.8543 32.239L32.7208 32.1807C31.1269 31.5165 29.9145 30.1729 29.4167 28.5192C28.9189 26.8656 29.1882 25.0758 30.1505 23.6419L30.1995 23.5742C30.2188 23.5465 30.2392 23.52 30.2597 23.4934L30.2598 23.4933C30.272 23.4774 30.2843 23.4615 30.2963 23.4453C30.4153 23.2831 30.5428 23.1273 30.6783 22.9786L30.7046 22.9495L30.7308 22.9203C31.1876 22.4314 31.7252 22.0249 32.3201 21.7187C32.5097 21.6224 32.7044 21.5365 32.9033 21.4614L32.9821 21.4328C33.157 21.3698 33.332 21.3162 33.5122 21.2695C33.5295 21.2652 33.5467 21.2607 33.564 21.2561L33.564 21.2561C33.587 21.25 33.61 21.2439 33.633 21.2386C33.8033 21.1983 33.9759 21.1686 34.1497 21.1447C34.1689 21.142 34.1878 21.1388 34.2068 21.1356C34.2334 21.1312 34.2601 21.1267 34.2873 21.1237C34.5055 21.0974 34.725 21.084 34.9447 21.0834C36.9153 21.0813 38.7497 22.0889 39.8053 23.7533L39.8846 23.8776L40.0135 23.9493C40.5081 24.2235 42.8994 25.7868 41.4582 29.6286L41.4302 29.7342C41.2392 30.5853 40.8683 31.3856 40.3425 32.0815L40.2258 32.2396C39.5714 33.0397 38.7006 33.6344 37.7173 33.9528ZM42.5657 29.9897C42.4686 30.441 42.3256 30.8812 42.1388 31.3034C44.307 30.2277 45.8852 28.2442 46.4465 25.8895C47.0078 23.5349 46.4941 21.0525 45.0445 19.1141C44.9519 19.1454 44.8574 19.1705 44.7616 19.1894C44.6259 19.2151 44.488 19.2282 44.3498 19.2284H44.3347H44.3119H44.2233C44.2718 20.1499 43.7465 21.0057 42.903 21.3795C42.0595 21.7533 41.0728 21.5675 40.4229 20.9125L39.2565 19.7459C38.3857 18.8733 38.3857 17.4603 39.2565 16.5877C39.5276 16.3201 39.8633 16.1272 40.231 16.0277C39.6636 15.9002 39.0839 15.8351 38.5023 15.8335C35.0263 15.8214 31.927 18.0207 30.7902 21.3063C30.8008 21.2985 30.8116 21.2914 30.8223 21.2843C30.8342 21.2765 30.846 21.2687 30.8573 21.2602C30.9769 21.1727 31.0976 21.0887 31.223 21.0088C31.2414 20.9969 31.2602 20.9857 31.279 20.9744C31.2907 20.9675 31.3024 20.9605 31.314 20.9533C31.7417 20.6889 32.197 20.472 32.6717 20.3064C32.6872 20.3013 32.7017 20.2957 32.7161 20.2903C32.7312 20.2845 32.7461 20.2788 32.7616 20.2738C32.8846 20.2324 33.0106 20.1979 33.1366 20.1635L33.1366 20.1635L33.1366 20.1635C33.2171 20.1419 33.2976 20.1203 33.3786 20.1011C33.4859 20.0766 33.5863 20.055 33.7029 20.034C33.8196 20.013 33.9362 19.9961 34.0528 19.9809C34.0773 19.9778 34.1016 19.9745 34.1258 19.9712C34.1867 19.9629 34.2472 19.9547 34.3089 19.9489C34.5194 19.929 34.7311 19.9168 34.9446 19.9168C37.2623 19.9147 39.4267 21.0751 40.7081 23.0067C41.3753 23.4232 43.7549 25.2117 42.8766 28.9391C42.8687 28.9729 42.8622 29.0059 42.8556 29.0389C42.8463 29.0862 42.8369 29.1335 42.8235 29.183C42.8078 29.2414 42.7871 29.303 42.7665 29.3643C42.7534 29.4034 42.7402 29.4424 42.7284 29.4805C42.7176 29.516 42.707 29.5514 42.6963 29.5868C42.6566 29.7191 42.6168 29.8517 42.5657 29.9897Z" fill="white"/>
<path d="M29.5014 50.66V51.776H25.9614V54.236H28.7214V55.352H25.9614V59H24.5934V50.66H29.5014ZM33.6371 59.108C33.0131 59.108 32.4491 58.968 31.9451 58.688C31.4411 58.4 31.0451 58 30.7571 57.488C30.4691 56.968 30.3251 56.368 30.3251 55.688C30.3251 55.016 30.4731 54.42 30.7691 53.9C31.0651 53.38 31.4691 52.98 31.9811 52.7C32.4931 52.42 33.0651 52.28 33.6971 52.28C34.3291 52.28 34.9011 52.42 35.4131 52.7C35.9251 52.98 36.3291 53.38 36.6251 53.9C36.9211 54.42 37.0691 55.016 37.0691 55.688C37.0691 56.36 36.9171 56.956 36.6131 57.476C36.3091 57.996 35.8931 58.4 35.3651 58.688C34.8451 58.968 34.2691 59.108 33.6371 59.108ZM33.6371 57.92C33.9891 57.92 34.3171 57.836 34.6211 57.668C34.9331 57.5 35.1851 57.248 35.3771 56.912C35.5691 56.576 35.6651 56.168 35.6651 55.688C35.6651 55.208 35.5731 54.804 35.3891 54.476C35.2051 54.14 34.9611 53.888 34.6571 53.72C34.3531 53.552 34.0251 53.468 33.6731 53.468C33.3211 53.468 32.9931 53.552 32.6891 53.72C32.3931 53.888 32.1571 54.14 31.9811 54.476C31.8051 54.804 31.7171 55.208 31.7171 55.688C31.7171 56.4 31.8971 56.952 32.2571 57.344C32.6251 57.728 33.0851 57.92 33.6371 57.92ZM41.2895 59.108C40.6655 59.108 40.1015 58.968 39.5975 58.688C39.0935 58.4 38.6975 58 38.4095 57.488C38.1215 56.968 37.9775 56.368 37.9775 55.688C37.9775 55.016 38.1255 54.42 38.4215 53.9C38.7175 53.38 39.1215 52.98 39.6335 52.7C40.1455 52.42 40.7175 52.28 41.3495 52.28C41.9815 52.28 42.5535 52.42 43.0655 52.7C43.5775 52.98 43.9815 53.38 44.2775 53.9C44.5735 54.42 44.7215 55.016 44.7215 55.688C44.7215 56.36 44.5695 56.956 44.2655 57.476C43.9615 57.996 43.5455 58.4 43.0175 58.688C42.4975 58.968 41.9215 59.108 41.2895 59.108ZM41.2895 57.92C41.6415 57.92 41.9695 57.836 42.2735 57.668C42.5855 57.5 42.8375 57.248 43.0295 56.912C43.2215 56.576 43.3175 56.168 43.3175 55.688C43.3175 55.208 43.2255 54.804 43.0415 54.476C42.8575 54.14 42.6135 53.888 42.3095 53.72C42.0055 53.552 41.6775 53.468 41.3255 53.468C40.9735 53.468 40.6455 53.552 40.3415 53.72C40.0455 53.888 39.8095 54.14 39.6335 54.476C39.4575 54.804 39.3695 55.208 39.3695 55.688C39.3695 56.4 39.5495 56.952 39.9095 57.344C40.2775 57.728 40.7375 57.92 41.2895 57.92ZM45.6178 55.664C45.6178 55 45.7538 54.412 46.0258 53.9C46.3058 53.388 46.6818 52.992 47.1538 52.712C47.6338 52.424 48.1658 52.28 48.7498 52.28C49.1818 52.28 49.6058 52.376 50.0218 52.568C50.4458 52.752 50.7818 53 51.0298 53.312V50.12H52.4098V59H51.0298V58.004C50.8058 58.324 50.4938 58.588 50.0938 58.796C49.7018 59.004 49.2498 59.108 48.7378 59.108C48.1618 59.108 47.6338 58.964 47.1538 58.676C46.6818 58.38 46.3058 57.972 46.0258 57.452C45.7538 56.924 45.6178 56.328 45.6178 55.664ZM51.0298 55.688C51.0298 55.232 50.9338 54.836 50.7418 54.5C50.5578 54.164 50.3138 53.908 50.0098 53.732C49.7058 53.556 49.3778 53.468 49.0258 53.468C48.6738 53.468 48.3458 53.556 48.0418 53.732C47.7378 53.9 47.4898 54.152 47.2978 54.488C47.1138 54.816 47.0218 55.208 47.0218 55.664C47.0218 56.12 47.1138 56.52 47.2978 56.864C47.4898 57.208 47.7378 57.472 48.0418 57.656C48.3538 57.832 48.6818 57.92 49.0258 57.92C49.3778 57.92 49.7058 57.832 50.0098 57.656C50.3138 57.48 50.5578 57.224 50.7418 56.888C50.9338 56.544 51.0298 56.144 51.0298 55.688Z" fill="white"/>
<defs>
<linearGradient id="paint0_linear_46_33" x1="80.85" y1="-5.60001" x2="-5.45917" y2="113.46" gradientUnits="userSpaceOnUse">
<stop stop-color="#FFAB18"/>
<stop offset="1" stop-color="#FF2197"/>
</linearGradient>
</defs>
</svg>
