<svg width="77" height="78" viewBox="0 0 77 78" fill="none" xmlns="http://www.w3.org/2000/svg">
<path fill-rule="evenodd" clip-rule="evenodd" d="M24.5 28C24.5 20.2804 30.7804 14 38.5 14C46.2196 14 52.5 20.2804 52.5 28C52.5 35.7196 46.2196 42 38.5 42C30.7804 42 24.5 35.7196 24.5 28ZM25.6743 28C25.6743 35.0722 31.4278 40.8257 38.5 40.8257C45.5722 40.8257 51.3257 35.0718 51.3257 28C51.3257 20.9278 45.5722 15.1743 38.5 15.1743C31.4278 15.1743 25.6743 20.9278 25.6743 28Z" fill="#828487"/>
<path fill-rule="evenodd" clip-rule="evenodd" d="M38.3072 23.6228C40.6292 23.6228 42.5179 25.5118 42.5179 27.8335C42.5179 30.1552 40.6289 32.0443 38.3072 32.0443C35.9855 32.0443 34.0964 30.1556 34.0964 27.8335C34.0964 25.5115 35.9851 23.6228 38.3072 23.6228ZM35.1365 27.8337C35.1365 29.5816 36.5589 31.0044 38.3072 31.0044C40.0558 31.0044 41.4779 29.582 41.4779 27.8337C41.4779 26.0854 40.0555 24.663 38.3072 24.663C36.5589 24.663 35.1365 26.0858 35.1365 27.8337Z" fill="#828487"/>
<path d="M38.8151 20.7026L40.0566 21.0257C40.086 21.0333 40.1152 21.0368 40.1443 21.0368C40.2982 21.0368 40.439 20.9335 40.4795 20.7775C40.5277 20.592 40.4164 20.4027 40.2313 20.3545L38.9899 20.0314C38.8047 19.9829 38.6151 20.0938 38.5669 20.2796C38.5191 20.4651 38.63 20.6544 38.8151 20.7026Z" fill="#828487"/>
<path d="M34.3697 21.7158C34.4852 21.5632 34.4554 21.3459 34.3025 21.2301C34.1496 21.1143 33.9322 21.1445 33.8168 21.2973L33.2305 22.0718C33.1151 22.2244 33.1449 22.4417 33.2978 22.5575C33.3606 22.605 33.434 22.6279 33.5069 22.6279C33.6119 22.6279 33.7155 22.5804 33.7835 22.4906L34.3697 21.7158Z" fill="#828487"/>
<path d="M36.9226 22.5996C36.9874 22.6534 37.0658 22.6794 37.1435 22.6794C37.2433 22.6794 37.3421 22.6364 37.4107 22.5539C37.5331 22.4065 37.5123 22.1878 37.365 22.0657L36.8072 21.6036C36.6595 21.4809 36.4414 21.502 36.3191 21.6494C36.1967 21.7967 36.2175 22.0155 36.3648 22.1375L36.9226 22.5996Z" fill="#828487"/>
<path d="M42.6155 21.3297C42.6415 21.3297 42.6678 21.3269 42.6945 21.3207L43.6752 21.0922C43.8618 21.0489 43.9779 20.8624 43.9342 20.6759C43.8909 20.4894 43.7044 20.3739 43.5182 20.4166L42.5375 20.645C42.3509 20.6884 42.2348 20.8749 42.2785 21.0614C42.3156 21.2215 42.4581 21.3297 42.6155 21.3297Z" fill="#828487"/>
<path d="M45.8568 25.3501L45.0785 24.9733C44.9073 24.8897 44.6989 24.9618 44.6154 25.1341C44.5322 25.3064 44.6043 25.5137 44.7766 25.5973L45.5549 25.9741C45.6034 25.9977 45.6547 26.0088 45.7057 26.0088C45.8343 26.0088 45.9584 25.9367 46.018 25.8133C46.1012 25.641 46.0291 25.4337 45.8568 25.3501Z" fill="#828487"/>
<path d="M40.3245 23.5312C40.373 23.5544 40.424 23.5655 40.4743 23.5655C40.6036 23.5655 40.7273 23.493 40.787 23.3689L41.2123 22.4825C41.2952 22.3098 41.2224 22.1029 41.0497 22.02C40.8761 21.9361 40.6698 22.01 40.5873 22.1826L40.1619 23.0691C40.079 23.2414 40.1518 23.4487 40.3245 23.5312Z" fill="#828487"/>
<path d="M41.6595 33.4397C41.5202 33.3086 41.3007 33.3159 41.1697 33.4556C41.0386 33.595 41.0459 33.8145 41.1856 33.9455L41.8207 34.5411C41.8873 34.6038 41.9726 34.635 42.0579 34.635C42.1504 34.635 42.2423 34.5983 42.3106 34.5255C42.4416 34.3861 42.4343 34.1667 42.2946 34.0356L41.6595 33.4397Z" fill="#828487"/>
<path d="M45.2353 28.1557C45.1722 27.9747 44.9749 27.8784 44.7943 27.9415L43.9203 28.2441C43.7397 28.3069 43.6433 28.5041 43.7061 28.6851C43.756 28.8286 43.8902 28.9184 44.0337 28.9184C44.0711 28.9184 44.1096 28.9122 44.147 28.8993L45.021 28.5967C45.2016 28.5339 45.298 28.3367 45.2353 28.1557Z" fill="#828487"/>
<path d="M36.8537 34.926L36.0542 35.2557C35.8771 35.3288 35.7928 35.5316 35.866 35.7088C35.9211 35.8426 36.0504 35.923 36.1866 35.923C36.2307 35.923 36.2754 35.9147 36.3187 35.897L37.1182 35.5673C37.2953 35.4942 37.3796 35.2914 37.3064 35.1142C37.2333 34.9371 37.0301 34.8535 36.8537 34.926Z" fill="#828487"/>
<path d="M42.8414 31.0142L42.0687 31.4198C41.8992 31.5089 41.8336 31.7183 41.9227 31.8882C41.9848 32.0064 42.1051 32.0736 42.2302 32.0736C42.2843 32.0736 42.3394 32.0608 42.3911 32.0341L43.1638 31.6285C43.3334 31.5394 43.3989 31.33 43.3098 31.1601C43.2207 30.9903 43.0117 30.9258 42.8414 31.0142Z" fill="#828487"/>
<path d="M45.4016 32.8695L44.7467 33.3389C44.591 33.4501 44.555 33.6668 44.667 33.8225C44.7346 33.9171 44.841 33.9674 44.9488 33.9674C45.0185 33.9674 45.0892 33.9462 45.1502 33.9022L45.8051 33.4328C45.9608 33.3215 45.9968 33.1048 45.8848 32.9492C45.7739 32.7932 45.5572 32.7575 45.4016 32.8695Z" fill="#828487"/>
<path d="M43.6745 23.2061C43.4994 23.1268 43.2946 23.2048 43.2159 23.3791L42.6546 24.6206C42.5756 24.795 42.6532 25.0005 42.8276 25.0792C42.874 25.1004 42.9222 25.1101 42.9701 25.1101C43.1022 25.1101 43.2283 25.0342 43.2862 24.9062L43.8475 23.6648C43.9266 23.4904 43.8489 23.2848 43.6745 23.2061Z" fill="#828487"/>
<path d="M31.7076 25.5726C31.8262 25.5726 31.9419 25.5116 32.0064 25.402C32.1038 25.237 32.0491 25.0245 31.8841 24.9271L30.8295 24.3044C30.6648 24.2074 30.4519 24.2618 30.3545 24.4268C30.2571 24.5918 30.3119 24.8043 30.4769 24.9018L31.5315 25.5244C31.5873 25.557 31.648 25.5726 31.7076 25.5726Z" fill="#828487"/>
<path d="M34.8408 24.1574C34.7379 23.9959 34.5233 23.9487 34.3621 24.0513L33.6829 24.4847C33.5214 24.5876 33.4739 24.8019 33.5769 24.9634C33.6431 25.0671 33.7551 25.1236 33.8695 25.1236C33.9332 25.1236 33.9977 25.1059 34.0556 25.0692L34.7348 24.6358C34.8963 24.5332 34.9435 24.319 34.8408 24.1574Z" fill="#828487"/>
<path d="M38.4654 33.5203L37.5786 33.2104C37.398 33.1473 37.2 33.2426 37.1373 33.4232C37.0742 33.6039 37.1695 33.8018 37.3501 33.8649L38.2369 34.1748C38.2747 34.188 38.3132 34.1943 38.3513 34.1943C38.4948 34.1943 38.6287 34.1048 38.6786 33.962C38.7417 33.7814 38.646 33.5834 38.4654 33.5203Z" fill="#828487"/>
<path d="M32.1097 31.5288L31.2818 31.9587C31.112 32.0471 31.0458 32.2561 31.1342 32.4263C31.1959 32.5452 31.3169 32.6132 31.442 32.6132C31.4957 32.6132 31.5502 32.6007 31.6015 32.5744L32.4293 32.1445C32.5992 32.0561 32.6654 31.847 32.577 31.6768C32.489 31.5066 32.2796 31.4407 32.1097 31.5288Z" fill="#828487"/>
<path d="M32.4293 27.4916C32.2591 27.4028 32.0497 27.469 31.9616 27.6389L31.3151 28.8807C31.2267 29.0506 31.2929 29.26 31.4624 29.3484C31.5134 29.3751 31.5685 29.3875 31.6222 29.3875C31.7474 29.3875 31.8684 29.3196 31.9301 29.201L32.5766 27.9592C32.6654 27.7897 32.5992 27.5803 32.4293 27.4916Z" fill="#828487"/>
<path d="M34.5038 31.916H34.5034C34.3117 31.9164 34.1568 32.0717 34.1571 32.2634L34.1585 33.1557C34.1588 33.3471 34.3138 33.5017 34.5052 33.5017H34.5055C34.6972 33.5014 34.8522 33.3461 34.8518 33.1543L34.8505 32.262C34.8501 32.0706 34.6951 31.916 34.5038 31.916Z" fill="#828487"/>
<path d="M45.5815 30.3825L44.867 30.4636C44.6767 30.4851 44.5404 30.6571 44.5619 30.8471C44.582 31.0239 44.7318 31.1546 44.9058 31.1546C44.9187 31.1546 44.9318 31.1539 44.9453 31.1521L45.6598 31.071C45.8502 31.0495 45.9864 30.8776 45.9649 30.6876C45.9434 30.4976 45.7763 30.3576 45.5815 30.3825Z" fill="#828487"/>
<path fill-rule="evenodd" clip-rule="evenodd" d="M49.2674 26.7663L49.2865 27.0117C49.2872 27.0253 49.2879 27.0388 49.2868 27.053V27.1757C49.2868 27.1879 49.2865 27.2003 49.2855 27.2128L49.2761 27.3449C49.2751 27.3591 49.2733 27.373 49.2712 27.3872L49.2342 27.6313C49.2324 27.6444 49.2296 27.6576 49.2265 27.6704L49.1981 27.7932C49.1959 27.8043 49.1928 27.8152 49.1896 27.8263L49.1887 27.8292L49.1135 28.0733C49.1083 28.0899 49.1028 28.1062 49.0958 28.1222L48.9579 28.4633C48.9488 28.4855 48.9388 28.5063 48.9273 28.5271L48.677 28.9597C48.6712 28.9698 48.6649 28.9798 48.6583 28.9892L47.6346 30.4615L47.5275 30.9018L47.5212 31.0842L47.5399 31.5747L47.5874 32.3589C47.5878 32.3714 47.5878 32.3835 47.5874 32.396L47.5684 32.916C47.568 32.9281 47.567 32.9403 47.5656 32.952L47.5372 33.2166C47.5358 33.2297 47.5337 33.2426 47.5313 33.2554L47.4228 33.7789L47.3524 34.042C47.3486 34.0559 47.3448 34.0694 47.3396 34.0829L47.2546 34.319C47.2494 34.3329 47.2442 34.3464 47.238 34.3599L47.134 34.5863L47.134 34.5863C47.1277 34.5991 47.1215 34.6119 47.1142 34.6244L46.9215 34.9617C46.9145 34.9746 46.9069 34.9863 46.8989 34.9978L46.6615 35.3174L46.4718 35.5292C46.4597 35.5428 46.4472 35.5552 46.4337 35.5674L46.2444 35.7379C46.2312 35.7504 46.217 35.7615 46.2025 35.7723L45.7743 36.0735C45.7598 36.0832 45.7449 36.0929 45.7293 36.1012L45.5025 36.224C45.496 36.2274 45.4894 36.2306 45.4828 36.2338C45.4788 36.2357 45.4749 36.2376 45.471 36.2396L45.2446 36.3432C45.2293 36.3502 45.2141 36.3561 45.1985 36.3616L44.6903 36.5277C44.6722 36.5332 44.6542 36.5377 44.6358 36.5412L44.1127 36.6303C44.1002 36.632 44.0881 36.6334 44.0756 36.6344L42.3606 36.7624L41.7557 36.9146L41.5671 36.9932L41.1868 37.2054L39.8937 38.0319L39.6434 38.1574C39.6305 38.164 39.6177 38.1695 39.6045 38.1751L39.1154 38.3609C39.1018 38.3661 39.0883 38.3699 39.0745 38.3737L38.829 38.4396C38.8169 38.4427 38.8047 38.4455 38.7926 38.4479L38.5472 38.4954C38.5333 38.4982 38.5194 38.5002 38.5056 38.502L38.2508 38.5301C38.2386 38.5315 38.2261 38.5321 38.214 38.5328L37.6936 38.5425C37.6742 38.5425 37.6555 38.5415 37.6364 38.5394L37.114 38.4704L36.8259 38.4077L36.8228 38.4069C36.8085 38.4033 36.794 38.3997 36.7802 38.3952L36.5441 38.3196L36.544 38.3196C36.5322 38.3158 36.5205 38.312 36.5091 38.3072L36.273 38.2129L36.273 38.2128C36.2622 38.2083 36.2515 38.2038 36.2411 38.1986L35.7575 37.947L35.5259 37.8C35.5137 37.7923 35.502 37.784 35.4902 37.7754L35.2919 37.6242C35.277 37.6131 35.2628 37.601 35.2492 37.5881L34.8904 37.2484C34.8804 37.239 34.871 37.229 34.8617 37.219L34.8616 37.2189L34.5216 36.8303L33.4268 35.4537L33.1297 35.1722L32.9778 35.0643L32.6055 34.8706L32.1832 34.7069L30.7293 34.2445C30.7178 34.2403 30.7067 34.2361 30.6956 34.2313L30.2259 34.0202C30.2124 34.0139 30.1995 34.0073 30.1867 34L29.9697 33.8773C29.959 33.8711 29.9479 33.8645 29.9375 33.8576L29.7291 33.7217C29.7048 33.7061 29.682 33.6891 29.6605 33.6697L29.5031 33.5421C29.4746 33.5213 29.448 33.497 29.424 33.4707L29.2826 33.3299C29.2659 33.3147 29.25 33.2987 29.2354 33.2814L28.8957 32.8733C28.8794 32.8529 28.8641 32.8307 28.851 32.8082L28.5234 32.2115C28.5182 32.2015 28.5133 32.1907 28.5088 32.18L28.4086 31.93C28.4045 31.9186 28.4006 31.9075 28.3972 31.8964L28.3594 31.7737L28.3582 31.7697C28.3552 31.7589 28.3521 31.7484 28.3497 31.7376L28.2928 31.4918C28.2901 31.4794 28.2876 31.4665 28.2855 31.4537L28.2481 31.2093C28.246 31.1961 28.2446 31.183 28.2436 31.1698L28.2245 30.924C28.2235 30.9108 28.2231 30.8973 28.2231 30.8841V30.6297C28.2231 30.6165 28.2235 30.603 28.2245 30.5898L28.2734 30.0722C28.2751 30.0583 28.2772 30.0448 28.2797 30.0313L28.3736 29.5342L28.8305 27.6046L28.8551 27.1847L28.7799 26.5361L28.4908 25.3141L28.4159 24.7698C28.4142 24.757 28.4131 24.7438 28.4128 24.7306L28.4031 24.333C28.4031 24.3195 28.4034 24.3063 28.4045 24.2928L28.4235 24.0473C28.4256 24.0217 28.4294 23.996 28.4353 23.9707L28.4752 23.7627C28.4786 23.7412 28.4832 23.7201 28.489 23.6993L28.6641 23.1643C28.67 23.1487 28.6769 23.1335 28.6842 23.1189L28.8673 22.7618C28.8752 22.7469 28.8839 22.732 28.8933 22.7178L29.2011 22.2713C29.2119 22.2567 29.223 22.2429 29.2351 22.2293L29.4899 21.9461C29.5024 21.9326 29.5152 21.9198 29.5287 21.9073L29.8445 21.6421C29.8549 21.6338 29.8657 21.6258 29.8764 21.6185L30.324 21.3304L30.8052 21.0829L31.9055 20.5383L32.265 20.2942L32.4332 20.1656L32.9456 19.6795L33.451 19.137C33.5016 19.0819 33.562 19.0417 33.6268 19.0139L33.8143 18.7754C33.8216 18.7664 33.8289 18.7574 33.8369 18.7487L34.1815 18.366C34.1905 18.3556 34.2002 18.3459 34.2102 18.3362L34.3922 18.1635C34.403 18.1535 34.4141 18.1438 34.4255 18.1348L34.6165 17.9819C34.6315 17.9701 34.6467 17.959 34.6627 17.9489L35.1501 17.6737L35.4122 17.5575C35.4288 17.5503 35.4458 17.5437 35.4631 17.5381L35.7027 17.4615C35.7166 17.4573 35.7304 17.4535 35.7446 17.4501L36.2744 17.3402C36.2861 17.3381 36.2976 17.3364 36.3094 17.335L36.5583 17.3062C36.5718 17.3045 36.5853 17.3034 36.5988 17.3031L36.8575 17.2937C36.8703 17.2934 36.8828 17.2934 36.8956 17.2937L37.4323 17.3232C37.452 17.3246 37.4721 17.3273 37.4919 17.3312L37.9901 17.4268C38.0105 17.4307 38.0306 17.4359 38.0504 17.4421L38.5468 17.6109L39.0405 17.812L40.1918 18.3032L40.4244 18.3871C40.4608 18.4 40.4941 18.4173 40.5256 18.4371L40.8786 18.5102L41.3383 18.5359L41.7914 18.5185L42.0458 18.4995L43.0564 18.4052C43.0692 18.4041 43.0817 18.4038 43.0945 18.4038H43.34C43.3531 18.4038 43.3663 18.4041 43.3795 18.4052L43.6249 18.4239C43.6385 18.4249 43.6516 18.4263 43.6648 18.4284L43.9089 18.4662C43.9252 18.4686 43.9414 18.4717 43.9574 18.4759L44.3439 18.591C44.3616 18.5969 44.3793 18.6042 44.3966 18.6118L44.762 18.7893C44.7776 18.7973 44.7929 18.8059 44.8078 18.8153L45.1468 19.051C45.1611 19.0614 45.1749 19.0729 45.1881 19.0846L45.5954 19.4823L45.8561 19.8269C45.8676 19.8425 45.8783 19.8591 45.888 19.8761L46.1324 20.3264C46.1404 20.3417 46.1473 20.3573 46.1539 20.3732L46.4268 21.1141L46.9346 22.8076L47.1038 23.2125L47.3091 23.5907L47.5687 23.9333L48.5564 25.1109L48.7162 25.3435C48.7235 25.3536 48.7297 25.364 48.736 25.3744L48.9974 25.8566C49.0029 25.8677 49.0078 25.8788 49.0123 25.8899L49.1991 26.4078C49.2023 26.4196 49.2057 26.4318 49.2085 26.4439L49.2369 26.5666C49.2397 26.5794 49.2425 26.5926 49.2446 26.6058L49.2633 26.7285C49.265 26.741 49.2667 26.7535 49.2674 26.7663ZM48.0055 28.0444L48.2097 27.4543L48.2465 27.0712L48.1979 26.6958L48.0575 26.3051L47.8457 25.914L47.5718 25.5379L47.2577 25.1614L46.6046 24.3932L46.4458 24.172C46.4354 24.1571 46.4254 24.1418 46.4163 24.1262L46.1719 23.6759C46.166 23.6648 46.1612 23.654 46.156 23.643L45.87 22.9222L45.2751 20.9774L45.1967 20.7829L44.9374 20.3329L44.6601 20.0077L44.2739 19.7075L43.9005 19.5387L43.524 19.4586L43.1122 19.443L42.6216 19.4794L41.6111 19.5737C41.5982 19.5747 41.5858 19.5751 41.5729 19.5751L41.0443 19.5654L40.7777 19.5452C40.7645 19.5442 40.7517 19.5428 40.7388 19.5407L40.4934 19.5029C40.4806 19.5012 40.4677 19.4984 40.4553 19.4957L39.9647 19.3827C39.8562 19.3577 39.7643 19.2998 39.6953 19.2228L39.3455 19.0904L38.1769 18.5825L37.7626 18.4418L37.3244 18.3575L36.8762 18.3329L36.4456 18.3655L35.9991 18.4581L35.8056 18.5201L35.2447 18.8106L35.0911 18.9334L34.94 19.0765L34.6207 19.4315L34.3156 19.8202C34.2511 19.9023 34.1655 19.9567 34.0733 19.9879L33.312 20.7735L33.1133 20.9527C33.1026 20.9621 33.0918 20.9711 33.0808 20.9798L32.6713 21.2817L32.1998 21.5664L30.8346 22.2355L30.246 22.6608L30.0265 22.9049L29.7794 23.2637L29.5585 23.7515L29.4847 24.0441C29.4826 24.0565 29.4802 24.069 29.4774 24.0815L29.4434 24.3529L29.4517 24.6705L29.5128 25.1226L29.7984 26.321C29.8015 26.3335 29.804 26.346 29.8057 26.3588L29.8747 26.8688L29.8955 27.1347C29.8969 27.1544 29.8972 27.1742 29.8965 27.1943L29.8671 27.7046C29.866 27.7188 29.8643 27.733 29.8619 27.7473L29.7742 28.2447L29.6431 28.7727L29.3911 29.7528L29.2801 30.4413L29.2645 30.8642L29.3602 31.4855L29.4628 31.7625L29.7301 32.2492L30.074 32.6409C30.0876 32.6531 30.1 32.6656 30.1122 32.6791L30.2217 32.7775C30.2359 32.7883 30.2494 32.799 30.2626 32.8108L30.3923 32.9096L30.6804 33.0829L31.0992 33.2712L31.5405 33.4178L32.7722 33.8127L33.0229 33.9164C33.034 33.9212 33.0447 33.9261 33.0554 33.9313L33.5058 34.1663C33.5255 34.1771 33.5446 34.1892 33.563 34.2024L33.9922 34.539C34.0022 34.548 34.0119 34.5577 34.0213 34.5678L34.37 34.9453L35.6212 36.5064L35.945 36.8132L36.1038 36.9342L36.4865 37.163L36.8789 37.3342L37.0748 37.397L37.5189 37.4798L37.7224 37.5017L38.1557 37.4934L38.5787 37.4296L38.7853 37.3741L39.1996 37.2167L39.6007 37.0028L40.0063 36.7463L40.8657 36.1867L41.1073 36.0599C41.1209 36.0529 41.1344 36.0467 41.1486 36.0408L41.375 35.9468C41.3864 35.942 41.3979 35.9378 41.4097 35.9337L41.6371 35.8577C41.6509 35.8532 41.6648 35.8494 41.679 35.846L42.1845 35.7368C42.197 35.7343 42.2098 35.7326 42.2223 35.7309L42.9901 35.6619L43.9809 35.5967L44.4119 35.5239L44.8355 35.3856L45.2116 35.1977L45.7181 34.8118L46.0357 34.4177L46.1993 34.1313L46.285 33.9441L46.355 33.7493L46.468 33.2969L46.5311 32.8573L46.5488 32.3754L46.5401 32.1299L46.4829 30.9596C46.4829 30.9464 46.4836 30.9329 46.4846 30.9197L46.494 30.797C46.495 30.7817 46.4971 30.7665 46.4996 30.7512L46.5363 30.5214C46.5384 30.5061 46.5415 30.4909 46.5453 30.4759L46.5734 30.3626C46.5769 30.3491 46.5807 30.3355 46.5852 30.3224L46.6608 30.0963C46.6684 30.0735 46.6777 30.0509 46.6885 30.0294L46.8837 29.6692L47.0268 29.4439C47.0352 29.4307 47.0442 29.4182 47.0535 29.4058L47.7909 28.4156L48.0055 28.0444Z" fill="#828487"/>
<path d="M23.6441 63.084C23.0841 63.084 22.5801 62.988 22.1321 62.796C21.6841 62.596 21.3321 62.316 21.0761 61.956C20.8201 61.596 20.6921 61.176 20.6921 60.696H22.1561C22.1881 61.056 22.3281 61.352 22.5761 61.584C22.8321 61.816 23.1881 61.932 23.6441 61.932C24.1161 61.932 24.4841 61.82 24.7481 61.596C25.0121 61.364 25.1441 61.068 25.1441 60.708C25.1441 60.428 25.0601 60.2 24.8921 60.024C24.7321 59.848 24.5281 59.712 24.2801 59.616C24.0401 59.52 23.7041 59.416 23.2721 59.304C22.7281 59.16 22.2841 59.016 21.9401 58.872C21.6041 58.72 21.3161 58.488 21.0761 58.176C20.8361 57.864 20.7161 57.448 20.7161 56.928C20.7161 56.448 20.8361 56.028 21.0761 55.668C21.3161 55.308 21.6521 55.032 22.0841 54.84C22.5161 54.648 23.0161 54.552 23.5841 54.552C24.3921 54.552 25.0521 54.756 25.5641 55.164C26.0841 55.564 26.3721 56.116 26.4281 56.82H24.9161C24.8921 56.516 24.7481 56.256 24.4841 56.04C24.2201 55.824 23.8721 55.716 23.4401 55.716C23.0481 55.716 22.7281 55.816 22.4801 56.016C22.2321 56.216 22.1081 56.504 22.1081 56.88C22.1081 57.136 22.1841 57.348 22.3361 57.516C22.4961 57.676 22.6961 57.804 22.9361 57.9C23.1761 57.996 23.5041 58.1 23.9201 58.212C24.4721 58.364 24.9201 58.516 25.2641 58.668C25.6161 58.82 25.9121 59.056 26.1521 59.376C26.4001 59.688 26.5241 60.108 26.5241 60.636C26.5241 61.06 26.4081 61.46 26.1761 61.836C25.9521 62.212 25.6201 62.516 25.1801 62.748C24.7481 62.972 24.2361 63.084 23.6441 63.084ZM31.4743 56.28C31.9943 56.28 32.4583 56.388 32.8663 56.604C33.2823 56.82 33.6063 57.14 33.8383 57.564C34.0703 57.988 34.1863 58.5 34.1863 59.1V63H32.8303V59.304C32.8303 58.712 32.6823 58.26 32.3863 57.948C32.0903 57.628 31.6863 57.468 31.1743 57.468C30.6623 57.468 30.2543 57.628 29.9503 57.948C29.6543 58.26 29.5063 58.712 29.5063 59.304V63H28.1383V56.388H29.5063V57.144C29.7303 56.872 30.0143 56.66 30.3583 56.508C30.7103 56.356 31.0823 56.28 31.4743 56.28ZM35.4753 59.664C35.4753 59 35.6113 58.412 35.8833 57.9C36.1633 57.388 36.5393 56.992 37.0113 56.712C37.4913 56.424 38.0193 56.28 38.5953 56.28C39.1153 56.28 39.5673 56.384 39.9513 56.592C40.3433 56.792 40.6553 57.044 40.8873 57.348V56.388H42.2673V63H40.8873V62.016C40.6553 62.328 40.3393 62.588 39.9393 62.796C39.5393 63.004 39.0833 63.108 38.5713 63.108C38.0033 63.108 37.4833 62.964 37.0113 62.676C36.5393 62.38 36.1633 61.972 35.8833 61.452C35.6113 60.924 35.4753 60.328 35.4753 59.664ZM40.8873 59.688C40.8873 59.232 40.7913 58.836 40.5993 58.5C40.4153 58.164 40.1713 57.908 39.8673 57.732C39.5633 57.556 39.2353 57.468 38.8833 57.468C38.5313 57.468 38.2033 57.556 37.8993 57.732C37.5953 57.9 37.3473 58.152 37.1553 58.488C36.9713 58.816 36.8793 59.208 36.8793 59.664C36.8793 60.12 36.9713 60.52 37.1553 60.864C37.3473 61.208 37.5953 61.472 37.8993 61.656C38.2113 61.832 38.5393 61.92 38.8833 61.92C39.2353 61.92 39.5633 61.832 39.8673 61.656C40.1713 61.48 40.4153 61.224 40.5993 60.888C40.7913 60.544 40.8873 60.144 40.8873 59.688ZM43.6081 59.688C43.6081 59.008 43.7441 58.412 44.0161 57.9C44.2961 57.38 44.6801 56.98 45.1681 56.7C45.6561 56.42 46.2161 56.28 46.8481 56.28C47.6481 56.28 48.3081 56.472 48.8281 56.856C49.3561 57.232 49.7121 57.772 49.8961 58.476H48.4201C48.3001 58.148 48.1081 57.892 47.8441 57.708C47.5801 57.524 47.2481 57.432 46.8481 57.432C46.2881 57.432 45.8401 57.632 45.5041 58.032C45.1761 58.424 45.0121 58.976 45.0121 59.688C45.0121 60.4 45.1761 60.956 45.5041 61.356C45.8401 61.756 46.2881 61.956 46.8481 61.956C47.6401 61.956 48.1641 61.608 48.4201 60.912H49.8961C49.7041 61.584 49.3441 62.12 48.8161 62.52C48.2881 62.912 47.6321 63.108 46.8481 63.108C46.2161 63.108 45.6561 62.968 45.1681 62.688C44.6801 62.4 44.2961 62 44.0161 61.488C43.7441 60.968 43.6081 60.368 43.6081 59.688ZM53.8754 59.7L56.9234 63H55.0754L52.6274 60.156V63H51.2594V54.12H52.6274V59.28L55.0274 56.388H56.9234L53.8754 59.7Z" fill="#828487"/>
</svg>
