<svg width="50" height="16" viewBox="0 0 50 16" fill="none" xmlns="http://www.w3.org/2000/svg">
<path d="M9.49194 8.22473L8.12903 1.63602C8.03337 1.25175 7.79969 0.916097 7.4725 0.693016C7.14532 0.469935 6.7475 0.375016 6.35484 0.426344H0.0483871L0 0.740859C4.90323 1.91828 8.14516 4.77312 9.49194 8.22473ZM14.0726 0.571505L10.0887 10.7409L9.67742 9.2086C8.37929 6.68355 6.43044 4.55095 4.03226 3.03118L7.66935 15.4586H11.9677L18.371 0.571505H14.0726ZM20.0242 0.571505L17.4839 15.4909H21.5161L24.0645 0.571505H20.0242ZM46.7097 0.571505H43.5484C43.1061 0.513871 42.6572 0.604511 42.272 0.829239C41.8867 1.05397 41.5869 1.4001 41.4194 1.81344L35.4113 15.4747H39.6774C39.6774 15.4747 40.371 13.636 40.5323 13.2328H45.7339C45.8548 13.7489 46.2258 15.4586 46.2258 15.4586H50L46.7097 0.571505ZM41.7016 10.1844C42.0403 9.32957 43.3145 6.01505 43.3145 6.01505C43.3145 6.01505 43.6532 5.16021 43.8548 4.5957L44.1371 5.87796L45.0726 10.1844H41.7016ZM32.2581 6.54731C30.8468 5.86183 29.9758 5.39408 29.9839 4.70054C29.9919 4.00699 30.7177 3.41828 32.3065 3.41828C33.3491 3.39043 34.3857 3.58565 35.3468 3.99086L35.7177 4.16021L36.2661 0.934408C35.1005 0.512191 33.8687 0.301889 32.629 0.313439C28.5968 0.313439 25.7823 2.32957 25.7581 5.23279C25.7581 7.36989 27.7742 8.5715 29.3145 9.26505C30.8548 9.9586 31.4516 10.4667 31.4516 11.1199C31.4516 12.1199 30.1855 12.5796 29.0323 12.5796C27.7128 12.61 26.4044 12.334 25.2097 11.7731L24.6855 11.5312L24.1129 14.8699C25.5625 15.4104 27.0981 15.6837 28.6452 15.6763C32.9113 15.6763 35.6855 13.6763 35.7177 10.5796C35.7097 8.90215 34.629 7.61183 32.2581 6.54731Z" fill="#273991"/>
<path d="M8.12903 1.63589C8.03337 1.25161 7.79969 0.915961 7.4725 0.69288C7.14532 0.469799 6.7475 0.37488 6.35484 0.426208H0.0483871L0 0.740723C4.90323 1.92621 8.14516 4.77298 9.49194 8.23266L8.12903 1.63589Z" fill="#F99F1B"/>
</svg>
