<svg width="52" height="30" viewBox="0 0 52 30" fill="none" xmlns="http://www.w3.org/2000/svg">
<path fill-rule="evenodd" clip-rule="evenodd" d="M1.43142 0.0131836H51.6229V29.9098H0.360107V0.0131836H1.43142Z" fill="#E53935"/>
<path fill-rule="evenodd" clip-rule="evenodd" d="M19.5835 19.2368H45.2149V21.3695H19.5835V19.2368ZM19.5835 12.829H45.2149V14.9616H19.5835V12.829ZM19.5835 6.42114H45.2149V8.55376H19.5835V6.42114Z" fill="#B71C1C"/>
<path fill-rule="evenodd" clip-rule="evenodd" d="M6.57764 0.0131836H13.1857V29.9098H6.57764V0.0131836Z" fill="#F9A825"/>
<path d="M14.9279 18.5659L10.062 14.6711L5.19599 18.5759L3.44385 19.9776L3.46387 17.7348L3.51393 9.92528L3.53396 8.03296L5.13592 9.03418L10.062 12.0579L14.988 9.02417L16.5899 8.03296L16.61 9.93529L16.66 17.7449L16.67 19.9676L14.9279 18.5659Z" fill="#FBC02D"/>
</svg>
