<svg width="50" height="31" viewBox="0 0 50 31" fill="none" xmlns="http://www.w3.org/2000/svg">
<path d="M31.7451 27.5373H18.2544V3.29346H31.7451V27.5373Z" fill="#FF5F00"/>
<path d="M19.1111 15.4164C19.109 13.0817 19.6382 10.7771 20.6584 8.67715C21.6787 6.57719 23.1634 4.73686 25 3.29549C22.7256 1.50808 19.9942 0.396564 17.118 0.0879832C14.2418 -0.220597 11.3368 0.286202 8.73503 1.55046C6.13322 2.81472 3.93957 4.78544 2.40476 7.23741C0.869956 9.68937 0.0559128 12.5237 0.0556641 15.4164C0.0562192 18.3087 0.870358 21.1426 2.40506 23.5942C3.93977 26.0458 6.13314 28.0162 8.73458 29.2804C11.336 30.5446 14.2406 31.0515 17.1165 30.7433C19.9923 30.435 22.7235 29.324 24.9979 27.5372C23.1619 26.0955 21.6778 24.255 20.6579 22.1551C19.638 20.0552 19.1091 17.7508 19.1111 15.4164Z" fill="#EB001B"/>
<path d="M49.9443 15.4164C49.9441 18.3091 49.1301 21.1434 47.5952 23.5953C46.0604 26.0473 43.8668 28.018 41.265 29.2823C38.6632 30.5465 35.7582 31.0533 32.882 30.7447C30.0058 30.4362 27.2744 29.3247 25 27.5372C28.5857 24.7144 30.8889 20.3346 30.8889 15.4164C30.8889 10.4982 28.5857 6.11836 25 3.29549C27.2744 1.50808 30.0058 0.396564 32.882 0.0879832C35.7582 -0.220597 38.6632 0.286202 41.265 1.55046C43.8668 2.81472 46.0604 4.78544 47.5952 7.23741C49.1301 9.68937 49.9441 12.5237 49.9443 15.4164Z" fill="#F79E1B"/>
</svg>
